<svg width="160" height="166" viewBox="0 0 160 166" fill="none" xmlns="http://www.w3.org/2000/svg">
<path d="M148.571 40V22.8571C148.571 10.2514 138.32 0 125.714 0C113.109 0 102.857 10.2514 102.857 22.8571V40C96.5543 40 91.4286 45.1314 91.4286 51.4286V85.7143C91.4286 92.0171 96.5543 97.1429 102.857 97.1429H148.571C154.874 97.1429 160 92.0171 160 85.7143V51.4286C160 45.1314 154.874 40 148.571 40ZM114.286 22.8571C114.286 16.56 119.411 11.4286 125.714 11.4286C132.017 11.4286 137.143 16.56 137.143 22.8571V40H114.286V22.8571ZM102.857 85.7143V51.4286H148.571V85.7143H102.857ZM80 165.714H68.5714V137.143C68.5669 132.598 66.7593 128.24 63.5454 125.026C60.3315 121.812 55.9737 120.005 51.4286 120H28.5714C24.0263 120.005 19.6685 121.812 16.4546 125.026C13.2407 128.24 11.4331 132.598 11.4286 137.143V165.714H0V137.143C0.00907347 129.568 3.02218 122.306 8.3784 116.95C13.7346 111.594 20.9966 108.58 28.5714 108.571H51.4286C59.0034 108.58 66.2654 111.594 71.6216 116.95C76.9778 122.306 79.9909 129.568 80 137.143V165.714ZM40 51.4286C44.5466 51.4286 48.9069 53.2347 52.1218 56.4496C55.3367 59.6645 57.1429 64.0249 57.1429 68.5714C57.1429 73.118 55.3367 77.4783 52.1218 80.6933C48.9069 83.9082 44.5466 85.7143 40 85.7143C35.4534 85.7143 31.0931 83.9082 27.8782 80.6933C24.6633 77.4783 22.8571 73.118 22.8571 68.5714C22.8571 64.0249 24.6633 59.6645 27.8782 56.4496C31.0931 53.2347 35.4534 51.4286 40 51.4286ZM40 40C32.4224 40 25.1551 43.0102 19.7969 48.3684C14.4388 53.7266 11.4286 60.9938 11.4286 68.5714C11.4286 76.149 14.4388 83.4163 19.7969 88.7745C25.1551 94.1327 32.4224 97.1429 40 97.1429C47.5776 97.1429 54.8449 94.1327 60.2031 88.7745C65.5612 83.4163 68.5714 76.149 68.5714 68.5714C68.5714 60.9938 65.5612 53.7266 60.2031 48.3684C54.8449 43.0102 47.5776 40 40 40Z" fill="black"/>
</svg>
