<?xml version="1.0" encoding="UTF-8" standalone="no"?>
<!-- Created with Inkscape (http://www.inkscape.org/) -->

<svg
   version="1.1"
   id="svg1"
   width="750.22668"
   height="1226.6667"
   viewBox="0 0 750.22668 1226.6667"
   sodipodi:docname="cG_magnifying_glass.svg"
   inkscape:version="1.4 (e7c3feb1, 2024-10-09)"
   xmlns:inkscape="http://www.inkscape.org/namespaces/inkscape"
   xmlns:sodipodi="http://sodipodi.sourceforge.net/DTD/sodipodi-0.dtd"
   xmlns="http://www.w3.org/2000/svg"
   xmlns:svg="http://www.w3.org/2000/svg">
  <defs
     id="defs1">
    <clipPath
       clipPathUnits="userSpaceOnUse"
       id="clipPath2">
      <path
         d="M -785.262,8073.23 4447.81,9980.99 7677.66,1121.35 2444.53,-786.41 Z"
         transform="translate(0,2.5000001e-4)"
         id="path2" />
    </clipPath>
    <clipPath
       clipPathUnits="userSpaceOnUse"
       id="clipPath3">
      <path
         d="M 13.332,9186.67 H 5626.67 V 0 H 13.332 Z"
         transform="matrix(0.13333333,0,0,-0.13333333,0,1226.6667)"
         id="path3" />
    </clipPath>
    <clipPath
       clipPathUnits="userSpaceOnUse"
       id="clipPath5">
      <path
         d="M -785.262,8073.23 4447.81,9980.99 7677.66,1121.35 2444.53,-786.41 Z"
         transform="translate(0,2.5000001e-4)"
         id="path5" />
    </clipPath>
    <clipPath
       clipPathUnits="userSpaceOnUse"
       id="clipPath6">
      <path
         d="M 0,9200 H 5573.33 V 3626.67 H 0 Z"
         transform="matrix(0.13333333,0,0,-0.13333333,0,1226.6667)"
         id="path6" />
    </clipPath>
    <clipPath
       clipPathUnits="userSpaceOnUse"
       id="clipPath8">
      <path
         d="M -785.262,8073.23 4447.81,9980.99 7677.66,1121.35 2444.53,-786.41 Z"
         transform="translate(0,2.5000001e-4)"
         id="path8" />
    </clipPath>
    <clipPath
       clipPathUnits="userSpaceOnUse"
       id="clipPath9">
      <path
         d="M 826.668,8266.67 H 2293.33 V 4813.33 H 826.668 Z"
         transform="matrix(0.13333333,0,0,-0.13333333,0,1226.6667)"
         id="path9" />
    </clipPath>
    <clipPath
       clipPathUnits="userSpaceOnUse"
       id="clipPath11">
      <path
         d="M -785.262,8073.23 4447.81,9980.99 7677.66,1121.35 2444.53,-786.41 Z"
         transform="translate(0,2.5000001e-4)"
         id="path11" />
    </clipPath>
  </defs>
  <sodipodi:namedview
     id="namedview1"
     pagecolor="#505050"
     bordercolor="#eeeeee"
     borderopacity="1"
     inkscape:showpageshadow="0"
     inkscape:pageopacity="0"
     inkscape:pagecheckerboard="0"
     inkscape:deskcolor="#505050"
     inkscape:zoom="0.050783308"
     inkscape:cx="-659.66557"
     inkscape:cy="255.98962"
     inkscape:window-width="1104"
     inkscape:window-height="533"
     inkscape:window-x="222"
     inkscape:window-y="38"
     inkscape:window-maximized="0"
     inkscape:current-layer="g1">
    <inkscape:page
       x="0"
       y="0"
       inkscape:label="1"
       id="page1"
       width="750.22668"
       height="1226.6667"
       margin="0"
       bleed="0" />
  </sodipodi:namedview>
  <g
     id="g1"
     inkscape:groupmode="layer"
     inkscape:label="1">
    <g
       id="group-R5">
      <g
         id="g5">
        <g
           clip-path="url(#clipPath3)"
           id="g4">
          <path
             d="m 2265.78,8163.33 c 20.99,-57.6 -8.8,-121.51 -66.35,-142.44 -303.39,-110.63 -567.76,-303.29 -764.59,-557.14 -362.86,-467.97 -458.539,-1079.01 -255.99,-1634.53 20.99,-57.55 -8.8,-121.51 -66.35,-142.45 -57.55,-20.99 -121.457,8.75 -142.449,66.3 -228.852,627.76 -120.781,1318.18 289.119,1846.88 222.55,286.98 521.35,504.74 864.16,629.74 57.56,20.94 121.46,-8.8 142.45,-66.36 z M 1771.25,5037.92 c 49.38,-36.25 60.05,-105.94 23.75,-155.32 -13.02,-17.76 -30.78,-31.09 -51.35,-38.59 -35.11,-12.76 -73.96,-7.24 -103.96,14.84 -152.66,112.14 -287.45,245.63 -400.68,396.67 -36.72,49.06 -26.72,118.85 22.29,155.57 8.8,6.62 18.44,11.83 28.65,15.52 45.57,16.67 97.81,1.1 126.93,-37.81 100.1,-133.59 219.37,-251.66 354.37,-350.88 z m 1761.77,-675.21 c -1131.46,-412.5 -2387.6,172.45 -2800.102,1303.96 -412.5,1131.45 172.445,2387.6 1303.962,2800.1 1131.51,412.5 2387.65,-172.45 2800.1,-1303.96 412.5,-1131.51 -172.45,-2387.6 -1303.96,-2800.1 z M 1839.38,9008.54 C 409.113,8487.19 -330.262,6899.37 191.145,5469.11 428.75,4817.29 898.645,4282.71 1514.27,3963.8 c 611.88,-316.93 1314.12,-394.32 1977.4,-217.86 l 17.81,4.74 6.87,-18.86 c -6.51,-1.77 -13.02,-3.7 -19.53,-5.41 l 80.11,-219.69 c 6.51,1.77 13.02,3.64 19.53,5.42 l 157.76,-432.77 -13.7,-5 c -1.77,-0.62 -3.44,-1.45 -5.21,-2.18 C 3630.57,3031.2 3570,2923.18 3587.03,2814.17 l 19.48,7.13 c 0.21,-1.35 0.26,-2.65 0.47,-4.01 l 2.55,-16.4 -19.53,-7.14 c -5.26,-1.93 -7.97,-7.71 -6.04,-12.97 1.77,-4.89 7.19,-7.55 12.24,-6.09 l 19.43,5.67 5.31,-18.33 -17.14,-6.25 c -0.62,-0.21 -1.3,-0.31 -1.92,-0.47 L 4331.61,243.492 c 2.77,2.34 5.89,4.321 9.48,5.68 l 8.96,3.277 4.59,-15.73 -9.74,-8.489 c -3.23,-2.761 -4.38,-7.078 -2.92,-11.039 1.25,-3.39 4.22,-5.781 8.02,-6.359 l 12.76,-1.98 4.27,-14.743 -5.21,-1.918 c -4.94,-1.769 -10.05,-2.089 -14.89,-1.359 l 4.01,-13.75 C 4389.38,44.8398 4531.67,-27.3398 4661.09,19.8398 l 803.55,292.9222 c 129.42,47.187 191.87,194.008 136.19,320 l -5.78,13.07 c -3.28,-3.691 -7.34,-6.723 -12.29,-8.543 l -5.21,-1.867 -6.2,14.058 8.49,9.692 c 2.5,2.859 3.29,6.609 2.04,10.047 -1.46,3.902 -5.11,6.511 -9.38,6.562 l -12.92,0.211 -6.61,14.949 9.01,3.278 c 3.59,1.301 7.29,1.82 10.88,1.773 L 4514.9,3088.12 c -0.63,-0.26 -1.2,-0.62 -1.83,-0.88 l -17.13,-6.2 -7.71,17.4 18.49,8.17 c 4.84,2.14 7.24,7.66 5.47,12.61 -1.93,5.21 -7.76,7.92 -12.97,5.99 l -19.58,-7.14 -8.6,14.22 c -0.68,1.15 -1.51,2.24 -2.24,3.33 l 19.53,7.14 c -57.13,94.38 -173.02,138.07 -279.58,102.03 -1.77,-0.62 -3.59,-1.04 -5.36,-1.67 l -13.7,-5 -157.76,432.77 c 6.09,2.86 12.34,5.57 18.43,8.43 l -80.1,219.69 c -6.09,-2.86 -12.29,-5.62 -18.44,-8.44 l -6.87,18.86 16.72,7.86 c 621.19,291.82 1108.9,802.97 1373.23,1439.32 265.93,640.26 281.51,1351.88 43.9,2003.7 -521.4,1430.26 -2109.22,2169.64 -3539.42,1648.23"
             style="fill:#4ebf56;fill-opacity:1;fill-rule:nonzero;stroke:none"
             transform="matrix(0.13333333,0,0,-0.13333333,0,1226.6667)"
             clip-path="url(#clipPath2)"
             id="path4" />
        </g>
      </g>
      <g
         id="g8">
        <g
           clip-path="url(#clipPath6)"
           id="g7">
          <path
             d="M 3581.98,4228.44 C 2374.53,3788.28 1038.85,4410.26 598.699,5617.71 158.488,6825.16 780.52,8160.83 1987.97,8600.99 3195.42,9041.2 4531.04,8419.22 4971.25,7211.77 5411.41,6004.32 4789.43,4668.65 3581.98,4228.44 Z M 1832.45,9027.55 C 389.426,8501.51 -353.906,6905.21 172.137,5462.24 669.113,4099.01 2121.15,3360.42 3496.82,3726.41 c 80.58,21.4 160.84,46.4 240.68,75.52 79.79,29.06 157.34,61.61 232.76,97.08 1288.44,605.26 1924.48,2105.05 1427.5,3468.23 -526.04,1443.02 -2122.29,2186.35 -3565.31,1660.31"
             style="fill:#f46c22;fill-opacity:1;fill-rule:nonzero;stroke:none"
             transform="matrix(0.13333333,0,0,-0.13333333,0,1226.6667)"
             clip-path="url(#clipPath5)"
             id="path7" />
        </g>
      </g>
      <g
         id="g11">
        <g
           clip-path="url(#clipPath9)"
           id="g10">
          <path
             d="M 2116.41,8248.65 C 1770.05,8122.4 1468.07,7902.34 1243.23,7612.29 829.012,7078.07 719.793,6380.47 951.043,5746.15 c 24.844,-68.13 100.207,-103.23 168.387,-78.39 68.12,24.84 103.23,100.21 78.38,168.39 -200.154,548.95 -105.57,1152.76 252.97,1615.2 194.53,250.89 455.78,441.25 755.57,550.52 68.13,24.85 103.23,100.21 78.39,168.39 -24.84,68.13 -100.21,103.23 -168.33,78.39 z M 1783.23,5054.22 c 58.44,-42.97 70.99,-125.16 28.07,-183.6 -15.94,-21.66 -37.24,-37.03 -60.73,-45.57 -39.89,-14.58 -86.09,-9.53 -122.86,17.5 -154.22,113.34 -290.47,248.18 -404.85,400.89 -43.48,58.02 -31.71,140.31 26.36,183.8 58.02,43.54 140.36,31.72 183.85,-26.3 98.91,-132.03 216.72,-248.7 350.16,-346.72"
             style="fill:#90d690;fill-opacity:1;fill-rule:nonzero;stroke:none"
             transform="matrix(0.13333333,0,0,-0.13333333,0,1226.6667)"
             clip-path="url(#clipPath8)"
             id="path10" />
        </g>
      </g>
      <g
         id="g12" />
    </g>
  </g>
</svg>
