<svg width="172" height="177" viewBox="0 0 172 177" fill="none" xmlns="http://www.w3.org/2000/svg">
<path d="M38.001 120.34L47.145 130.282L70.001 105.426M38.001 62.3414L47.145 72.284L70.001 47.4275" stroke="black" stroke-width="10.5" stroke-linecap="round" stroke-linejoin="round"/>
<path d="M94 63.9985H134M94 121.997H134M166 88.855C166 127.913 166 147.442 154.28 159.572C142.576 171.71 123.712 171.71 86 171.71C48.288 171.71 29.432 171.71 17.712 159.572C6 147.45 6 127.913 6 88.855C6 49.7972 6 30.2682 17.712 18.13C29.44 6 48.288 6 86 6C123.712 6 142.568 6 154.28 18.13C162.072 26.2 164.68 37.5429 165.56 55.713" stroke="black" stroke-width="10.5" stroke-linecap="round"/>
</svg>
