<svg width="170" height="151" viewBox="0 0 170 151" fill="none" xmlns="http://www.w3.org/2000/svg">
<path d="M41.3705 150.879C37.0521 150.722 32.9439 149.602 29.046 147.518C25.1544 145.44 21.4762 142.396 18.0113 138.385C12.3371 131.939 7.91821 124.011 4.75469 114.602C1.5849 105.193 0 95.4203 0 85.2832C0 73.464 2.20003 62.3697 6.60008 52.0004C11.0001 41.631 17.0447 32.6018 24.7338 24.9127C32.4229 17.2236 41.4208 11.1508 51.7273 6.69425C62.0339 2.2377 73.0371 0.00628997 84.7371 1.31498e-05C96.4371 -0.00626367 107.44 2.23456 117.747 6.72249C128.053 11.2104 137.02 17.2801 144.646 24.9316C152.273 32.583 158.317 41.5902 162.78 51.9533C167.243 62.3163 169.474 73.3698 169.474 85.1137C169.474 95.2634 167.842 105.021 164.578 114.386C161.314 123.751 156.801 131.804 151.039 138.545C147.374 142.694 143.62 145.786 139.779 147.819C135.943 149.853 131.876 150.87 127.576 150.87C125.354 150.87 123.195 150.606 121.099 150.079C118.996 149.558 116.893 148.773 114.791 147.725L101.609 141.134C99.0043 139.829 96.252 138.85 93.3521 138.197C90.4459 137.544 87.5146 137.218 84.5582 137.218C81.4826 137.218 78.5231 137.544 75.6797 138.197C72.8363 138.85 70.1686 139.829 67.6767 141.134L54.6837 147.725C52.424 148.93 50.2366 149.793 48.1213 150.314C45.9997 150.842 43.7495 151.036 41.3705 150.879ZM41.6624 141.455C43.0747 141.455 44.5278 141.298 46.0217 140.984C47.5156 140.67 48.9655 140.121 50.3715 139.336L63.5528 132.745C66.8482 131.019 70.2628 129.764 73.7966 128.979C77.3305 128.195 80.8988 127.802 84.5017 127.802C88.1046 127.802 91.7138 128.195 95.3293 128.979C98.9447 129.764 102.397 131.019 105.686 132.745L119.103 139.336C120.515 140.121 121.927 140.67 123.34 140.984C124.752 141.298 126.164 141.455 127.576 141.455C130.558 141.455 133.414 140.67 136.144 139.101C138.868 137.531 141.567 135.178 144.241 132.039C149.263 126.076 153.154 118.936 155.916 110.62C158.678 102.303 160.059 93.691 160.059 84.7842C160.059 63.7569 152.762 45.937 138.169 31.3245C123.575 16.7121 105.764 9.40897 84.7371 9.41525C63.7098 9.42153 45.8993 16.7968 31.3057 31.5411C16.712 46.2853 9.41524 64.1743 9.41524 85.2079C9.41524 94.1524 10.8966 102.861 13.8592 111.335C16.8219 119.809 20.8328 126.949 25.8919 132.755C28.5595 135.893 31.1487 138.131 33.6595 139.468C36.1702 140.805 38.8378 141.461 41.6624 141.455ZM84.7371 98.86C88.7104 98.86 92.0559 97.4979 94.7738 94.7738C97.4979 92.0559 98.86 88.7104 98.86 84.7371C98.86 83.3562 98.6528 82.0099 98.2386 80.698C97.818 79.3799 97.2531 78.1559 96.5438 77.026L113.924 54.5519C116.372 56.8743 118.478 59.385 120.242 62.0841C122.006 64.7831 123.34 67.6861 124.243 70.7932C124.67 71.9795 125.304 72.9995 126.145 73.8531C126.993 74.713 128.006 75.143 129.186 75.143C130.881 75.143 132.146 74.4337 132.981 73.0152C133.822 71.5966 133.969 70.0243 133.423 68.2981C129.921 57.7593 123.707 49.2354 114.781 42.7264C105.843 36.211 95.8283 32.9533 84.7371 32.9533C73.6083 32.9533 63.556 36.211 54.5801 42.7264C45.6043 49.2354 39.3682 57.7593 35.872 68.2981C35.326 70.0243 35.5017 71.5935 36.3993 73.0058C37.2969 74.418 38.5334 75.1305 40.1089 75.143C41.2889 75.143 42.2713 74.713 43.0559 73.8531C43.8405 72.9932 44.4462 71.9732 44.873 70.7932C47.6725 62.2379 52.7379 55.3616 60.0692 50.1644C67.4005 44.9672 75.6232 42.3686 84.7371 42.3686C88.5785 42.3686 92.3478 42.9335 96.0448 44.0633C99.7419 45.1932 103.235 46.778 106.524 48.818L89.087 71.3957C88.4091 71.151 87.6841 70.9595 86.912 70.8214C86.14 70.6833 85.415 70.6143 84.7371 70.6143C80.7639 70.6143 77.4183 71.9764 74.7005 74.7005C71.9763 77.4184 70.6143 80.7639 70.6143 84.7371C70.6143 88.7104 71.9763 92.0559 74.7005 94.7738C77.4246 97.4916 80.7702 98.8537 84.7371 98.86Z" fill="black"/>
</svg>
