<svg width="254" height="205" viewBox="0 0 254 205" fill="none" xmlns="http://www.w3.org/2000/svg">
<g filter="url(#filter0_d_4159_7339)">
<rect x="4" width="246" height="61" rx="8" fill="#FFFCFC" shape-rendering="crispEdges"/>
<path d="M26.003 39.5C24.759 39.5 23.589 39.264 22.493 38.792C21.3977 38.3193 20.4447 37.678 19.634 36.868C18.8233 36.058 18.1817 35.106 17.709 34.012C17.2363 32.918 17 31.7483 17 30.503C17 29.2577 17.2363 28.0877 17.709 26.993C18.181 25.8977 18.8213 24.9447 19.63 24.134C20.4387 23.3233 21.391 22.6817 22.487 22.209C23.583 21.7363 24.753 21.5 25.997 21.5C27.241 21.5 28.411 21.7363 29.507 22.209C30.6023 22.681 31.5553 23.3217 32.366 24.131C33.1767 24.9403 33.8183 25.8927 34.291 26.988C34.7637 28.0833 35 29.253 35 30.497C35 31.741 34.764 32.911 34.292 34.007C33.82 35.103 33.1787 36.056 32.368 36.866C31.5573 37.676 30.6053 38.3177 29.512 38.791C28.4187 39.2643 27.249 39.5007 26.003 39.5Z" fill="#008A31"/>
<path d="M24.1963 35.3528L20 31.1564L21.0491 30.1074L24.1963 33.2546L30.9509 26.5L32 27.5491L24.1963 35.3528Z" fill="white"/>
<path d="M50.2144 29H44.8271C44.8271 28.436 44.9185 27.9258 45.1011 27.4639C45.2837 27.0073 45.5093 26.6475 45.7832 26.3789C46.0518 26.1104 46.3472 25.8579 46.6694 25.6162C46.9863 25.3745 47.2817 25.1704 47.5503 24.9985C47.8188 24.8267 48.0498 24.6279 48.2324 24.4023C48.415 24.1768 48.5117 23.9297 48.5117 23.6665C48.5117 23.3604 48.415 23.1187 48.2217 22.9414C48.0283 22.7642 47.7598 22.6729 47.4106 22.6729C47.1313 22.6729 46.8896 22.7534 46.6855 22.9092C46.4814 23.0703 46.3525 23.2261 46.2881 23.3765L46.2021 23.6074L44.8271 22.9521C44.8379 22.9038 44.8647 22.8394 44.897 22.7534C44.9292 22.6729 45.0151 22.5278 45.1548 22.3184C45.2944 22.1089 45.4556 21.9263 45.6382 21.7651C45.8208 21.6094 46.0786 21.4644 46.4116 21.3354C46.7446 21.2065 47.1152 21.1367 47.5181 21.1367C48.3022 21.1367 48.9468 21.3784 49.4517 21.8511C49.9565 22.3291 50.2144 22.9146 50.2144 23.6074C50.2144 23.9995 50.1284 24.354 49.9619 24.6709C49.79 24.9932 49.5698 25.2617 49.3013 25.4873C49.0273 25.7129 48.748 25.917 48.4634 26.105C48.1787 26.293 47.8887 26.5078 47.5933 26.7441C47.2925 26.9805 47.0669 27.2222 46.9165 27.4585H50.2144V29ZM55.4995 25.0952V26.4165H51.541V25.0952H55.4995ZM59.791 23.7739L59.7856 25.1006H58.5771V29.0054H57.0894V25.1006H56.3213V23.7793H57.0894V23.0649C57.0894 21.8188 57.6587 21.1958 58.7974 21.1958C58.9585 21.1958 59.125 21.2065 59.2861 21.2388C59.4526 21.2656 59.5815 21.2925 59.6675 21.3193L59.7856 21.3569V22.6191C59.6406 22.5493 59.458 22.5117 59.2378 22.5117C59.0498 22.5117 58.894 22.5708 58.7705 22.689C58.6416 22.8071 58.5825 22.9468 58.5825 23.1133V23.7739H59.791ZM63.7549 29L63.7495 28.4521C63.7065 28.5059 63.6475 28.5649 63.5723 28.6401C63.4971 28.7153 63.3252 28.812 63.0674 28.9302C62.8096 29.0483 62.541 29.1074 62.2617 29.1074C61.7246 29.1074 61.2896 28.9624 60.9512 28.6616C60.6182 28.3608 60.4463 28.001 60.4463 27.5713C60.4463 27.1309 60.5913 26.7656 60.8706 26.4702C61.1553 26.1802 61.5474 25.9868 62.0415 25.8955L63.7495 25.5894C63.7495 25.3638 63.6689 25.1812 63.5024 25.0361C63.3413 24.8965 63.1104 24.8213 62.8149 24.8213C62.5732 24.8213 62.353 24.8696 62.1489 24.9609C61.9502 25.0522 61.8105 25.1436 61.7246 25.2402L61.6011 25.3691L60.7793 24.5474C60.8008 24.5205 60.833 24.4829 60.8706 24.4346C60.9082 24.3862 60.9941 24.3003 61.123 24.1821C61.252 24.064 61.397 23.9619 61.5474 23.8706C61.7031 23.7793 61.9072 23.6934 62.1543 23.6182C62.4067 23.543 62.6646 23.5 62.9277 23.5C63.6045 23.5 64.1631 23.7041 64.5928 24.1123C65.0225 24.5205 65.2373 25.0308 65.2373 25.6431V29H63.7549ZM62.6484 27.8989C62.9868 27.8989 63.2554 27.7969 63.4541 27.582C63.6528 27.3672 63.7495 27.0718 63.7495 26.6904V26.5239L62.541 26.7441C62.1382 26.8086 61.9341 27.0127 61.9341 27.3511C61.9341 27.7163 62.1758 27.8989 62.6484 27.8989ZM71.457 24.6011L70.5225 25.5356C70.4902 25.4873 70.4419 25.4229 70.3774 25.3369C70.313 25.2563 70.168 25.1489 69.9478 25.02C69.7275 24.8911 69.4966 24.8213 69.2549 24.8213C68.8628 24.8213 68.5244 24.9663 68.2451 25.2563C67.9658 25.5464 67.8262 25.9009 67.8262 26.3091C67.8262 26.7173 67.9658 27.0664 68.2505 27.3564C68.5298 27.6465 68.8682 27.7915 69.2549 27.7915C69.4966 27.7915 69.7275 27.7324 69.9478 27.6143C70.168 27.4961 70.3291 27.3779 70.4312 27.2598L70.5762 27.0771L71.457 28.0117C71.4355 28.0439 71.4033 28.0815 71.3657 28.1353C71.3281 28.189 71.2422 28.2749 71.1079 28.3984C70.9683 28.522 70.8232 28.6294 70.6675 28.7261C70.5063 28.8228 70.3022 28.9087 70.0498 28.9893C69.7974 29.0698 69.5342 29.1074 69.2549 29.1074C68.46 29.1074 67.7778 28.8281 67.2031 28.2695C66.623 27.7109 66.3384 27.0557 66.3384 26.3037C66.3384 25.5571 66.623 24.9019 67.2031 24.3433C67.7778 23.7847 68.46 23.5 69.2549 23.5H69.4214V23.3335C69.4214 22.689 69.6416 22.1626 70.082 21.7544C70.5225 21.3462 71.1079 21.1367 71.8384 21.1367C72.585 21.1367 73.1865 21.373 73.6377 21.835C74.0889 22.3022 74.3145 22.9307 74.3145 23.7202H75.4155V25.0415H74.3145V27.1846C74.3145 27.3564 74.3735 27.4961 74.5024 27.6143C74.626 27.7324 74.7817 27.7915 74.9751 27.7915C75.0718 27.7915 75.1631 27.7861 75.2544 27.7646C75.3457 27.7432 75.4155 27.7217 75.4585 27.7002L75.5283 27.6787V28.9463C75.2329 29.0591 74.8999 29.1128 74.5347 29.1074C73.396 29.1074 72.832 28.4844 72.832 27.2383V25.0415H71.8975V23.7202H72.832C72.832 23.3174 72.7354 23.0059 72.542 22.7856C72.3486 22.5654 72.0962 22.4526 71.7847 22.4526C71.4839 22.4526 71.2422 22.5439 71.0649 22.7266C70.8823 22.9092 70.7964 23.1455 70.7964 23.4463C70.7964 23.6235 70.8501 23.8062 70.9575 23.9995C71.0649 24.1929 71.1777 24.3433 71.2905 24.4453L71.457 24.6011ZM77.999 26.3091C77.999 26.7119 78.1279 27.0503 78.3911 27.3242C78.6489 27.5981 78.9604 27.7324 79.3203 27.7324C79.6748 27.7324 79.9863 27.5981 80.2495 27.3242C80.5073 27.0503 80.6416 26.7119 80.6416 26.3091C80.6416 25.9062 80.5073 25.5679 80.2495 25.2886C79.9863 25.0146 79.6748 24.875 79.3203 24.875C78.9604 24.875 78.6489 25.0146 78.3911 25.2886C78.1279 25.5679 77.999 25.9062 77.999 26.3091ZM82.1777 26.3037C82.1777 27.0557 81.8931 27.7109 81.3237 28.2695C80.7544 28.8281 80.0884 29.1074 79.3203 29.1074C78.5469 29.1074 77.8809 28.8281 77.3115 28.2695C76.7422 27.7109 76.4575 27.0557 76.4575 26.3037C76.4575 25.5571 76.7422 24.9019 77.3115 24.3433C77.8809 23.7847 78.5469 23.5054 79.3203 23.5054C80.0884 23.5054 80.7544 23.7847 81.3237 24.3433C81.8931 24.9019 82.1777 25.5571 82.1777 26.3037ZM86.5229 23.5537L86.5176 25.0469C86.4102 25.0093 86.2437 24.9878 86.0234 24.9824C85.6367 24.9824 85.3252 25.106 85.0996 25.353C84.874 25.6001 84.7559 25.9546 84.7559 26.4165V29H83.2734V23.6074H84.7559V24.2681C84.7988 24.2197 84.8633 24.1553 84.9385 24.0747C85.019 23.9941 85.1909 23.8867 85.4595 23.7524C85.728 23.6235 86.0073 23.5537 86.3027 23.5537H86.5229ZM92.5762 29L92.5708 28.4521C92.5278 28.5059 92.4688 28.5649 92.3936 28.6401C92.3184 28.7153 92.1465 28.812 91.8887 28.9302C91.6309 29.0483 91.3623 29.1074 91.083 29.1074C90.5459 29.1074 90.1108 28.9624 89.7725 28.6616C89.4395 28.3608 89.2676 28.001 89.2676 27.5713C89.2676 27.1309 89.4126 26.7656 89.6919 26.4702C89.9766 26.1802 90.3687 25.9868 90.8628 25.8955L92.5708 25.5894C92.5708 25.3638 92.4902 25.1812 92.3237 25.0361C92.1626 24.8965 91.9316 24.8213 91.6362 24.8213C91.3945 24.8213 91.1743 24.8696 90.9702 24.9609C90.7715 25.0522 90.6318 25.1436 90.5459 25.2402L90.4224 25.3691L89.6006 24.5474C89.6221 24.5205 89.6543 24.4829 89.6919 24.4346C89.7295 24.3862 89.8154 24.3003 89.9443 24.1821C90.0732 24.064 90.2183 23.9619 90.3687 23.8706C90.5244 23.7793 90.7285 23.6934 90.9756 23.6182C91.228 23.543 91.4858 23.5 91.749 23.5C92.4258 23.5 92.9844 23.7041 93.4141 24.1123C93.8438 24.5205 94.0586 25.0308 94.0586 25.6431V29H92.5762ZM91.4697 27.8989C91.8081 27.8989 92.0767 27.7969 92.2754 27.582C92.4741 27.3672 92.5708 27.0718 92.5708 26.6904V26.5239L91.3623 26.7441C90.9595 26.8086 90.7554 27.0127 90.7554 27.3511C90.7554 27.7163 90.9971 27.8989 91.4697 27.8989ZM99.1235 29V28.4521C99.0806 28.5059 99.0161 28.5649 98.9409 28.6401C98.8604 28.7153 98.6885 28.812 98.4199 28.9302C98.1514 29.0483 97.8721 29.1074 97.582 29.1074C96.9644 29.1074 96.4595 28.9033 96.0728 28.4897C95.686 28.0762 95.4927 27.5229 95.4927 26.8354V23.6074H96.9751V26.6904C96.9751 26.9912 97.0718 27.2437 97.2705 27.437C97.4692 27.6357 97.7217 27.7324 98.0225 27.7324C98.3555 27.7324 98.624 27.625 98.8228 27.4048C99.0215 27.1899 99.1235 26.8784 99.1235 26.4702V23.6074H100.606V29H99.1235ZM102.749 23.0059V22.0176H104.07V23.7202H105.166V25.0415H104.07V27.1846C104.07 27.3564 104.129 27.4961 104.253 27.6143C104.376 27.7324 104.532 27.7915 104.726 27.7915C104.822 27.7915 104.914 27.7861 105.005 27.7646C105.096 27.7432 105.166 27.7217 105.214 27.7002L105.279 27.6787V28.9463C104.983 29.0591 104.65 29.1128 104.285 29.1074C103.146 29.1074 102.583 28.4844 102.583 27.2383V25.0415H101.648V23.7202H102.142C102.309 23.7202 102.454 23.6558 102.572 23.5215C102.69 23.3926 102.749 23.2207 102.749 23.0059ZM108.088 21.2979L108.083 24.2734C108.125 24.2144 108.19 24.1445 108.265 24.0586C108.34 23.9727 108.512 23.8599 108.781 23.7148C109.049 23.5752 109.329 23.5 109.624 23.5C110.236 23.5 110.741 23.7148 111.128 24.1392C111.515 24.5688 111.713 25.1436 111.713 25.8633V29H110.231V26.0298C110.231 25.7021 110.129 25.439 109.936 25.2349C109.742 25.0308 109.49 24.9287 109.184 24.9287C108.845 24.9287 108.577 25.0415 108.383 25.2617C108.185 25.4819 108.088 25.7935 108.088 26.1963V29H106.6V21.2979H108.088ZM118.255 26.7979H114.351C114.404 27.0933 114.56 27.3403 114.818 27.5444C115.07 27.7485 115.393 27.8452 115.779 27.8452C116.059 27.8452 116.316 27.7915 116.553 27.6841C116.789 27.5767 116.961 27.4639 117.058 27.3511L117.213 27.1846L117.981 28.1729L117.879 28.2749C117.836 28.3179 117.74 28.3931 117.595 28.5005C117.444 28.6079 117.289 28.7046 117.127 28.7905C116.961 28.8765 116.746 28.9463 116.483 29.0107C116.22 29.0752 115.951 29.1074 115.672 29.1074C114.877 29.1074 114.206 28.8335 113.647 28.2856C113.088 27.7378 112.809 27.0771 112.809 26.3037C112.809 25.5356 113.083 24.875 113.636 24.3271C114.184 23.7793 114.845 23.5 115.618 23.5C116.386 23.5 117.025 23.7578 117.541 24.2734C118.051 24.7891 118.309 25.4282 118.309 26.1963L118.255 26.7979ZM115.618 24.7676C115.301 24.7676 115.033 24.8589 114.812 25.0415C114.592 25.2241 114.437 25.4658 114.351 25.7559H116.827C116.768 25.4712 116.628 25.2349 116.413 25.0469C116.198 24.8643 115.93 24.7676 115.618 24.7676ZM120.898 23.6074L120.893 24.2734C120.936 24.2144 121 24.1445 121.075 24.0586C121.156 23.9727 121.328 23.8599 121.596 23.7148C121.865 23.5752 122.144 23.5 122.434 23.5C123.052 23.5 123.557 23.7148 123.943 24.1392C124.33 24.5688 124.523 25.1436 124.523 25.8633V29H123.041V26.0298C123.041 25.7021 122.944 25.439 122.751 25.2349C122.558 25.0308 122.305 24.9287 121.999 24.9287C121.661 24.9287 121.392 25.0415 121.193 25.2617C120.995 25.4819 120.898 25.7935 120.898 26.1963V29H119.416V23.6074H120.898ZM126.618 23.0059V22.0176H127.939V23.7202H129.035V25.0415H127.939V27.1846C127.939 27.3564 127.999 27.4961 128.122 27.6143C128.246 27.7324 128.401 27.7915 128.595 27.7915C128.691 27.7915 128.783 27.7861 128.874 27.7646C128.965 27.7432 129.035 27.7217 129.083 27.7002L129.148 27.6787V28.9463C128.853 29.0591 128.52 29.1128 128.154 29.1074C127.016 29.1074 126.452 28.4844 126.452 27.2383V25.0415H125.517V23.7202H126.011C126.178 23.7202 126.323 23.6558 126.441 23.5215C126.559 23.3926 126.618 23.2207 126.618 23.0059ZM131.957 23.6074V29H130.469V23.6074H131.957ZM132.064 22.0713C132.064 22.3184 131.984 22.5171 131.828 22.6675C131.667 22.8179 131.452 22.8931 131.184 22.8931C130.931 22.8931 130.732 22.8179 130.582 22.6675C130.432 22.5171 130.362 22.3184 130.362 22.0713C130.362 21.8242 130.437 21.6201 130.587 21.4697C130.738 21.3193 130.937 21.2441 131.184 21.2441C131.452 21.2441 131.667 21.3193 131.828 21.4697C131.984 21.6201 132.064 21.8242 132.064 22.0713ZM133.112 26.3037C133.112 25.5571 133.396 24.9019 133.971 24.3433C134.551 23.7847 135.233 23.5 136.023 23.5C136.302 23.5 136.571 23.543 136.823 23.6182C137.076 23.6934 137.28 23.7847 137.441 23.8921C137.602 23.9995 137.747 24.1016 137.871 24.209C138 24.3164 138.091 24.4131 138.145 24.4883L138.225 24.6011L137.291 25.5356C137.264 25.4873 137.215 25.4229 137.151 25.3369C137.086 25.2563 136.941 25.1489 136.721 25.02C136.501 24.8911 136.27 24.8213 136.023 24.8213C135.636 24.8213 135.298 24.9663 135.019 25.2563C134.739 25.5464 134.594 25.9009 134.594 26.3091C134.594 26.7173 134.739 27.0664 135.019 27.3564C135.303 27.6465 135.636 27.7915 136.023 27.7915C136.27 27.7915 136.501 27.7324 136.721 27.6143C136.941 27.4961 137.103 27.3779 137.199 27.2598L137.344 27.0771L138.225 28.0117C138.204 28.0439 138.177 28.0815 138.139 28.1353C138.102 28.189 138.016 28.2749 137.876 28.3984C137.742 28.522 137.597 28.6294 137.436 28.7261C137.28 28.8228 137.076 28.9087 136.823 28.9893C136.571 29.0698 136.302 29.1074 136.023 29.1074C135.233 29.1074 134.551 28.8281 133.977 28.2695C133.396 27.7109 133.112 27.0557 133.112 26.3037ZM142.194 29L142.189 28.4521C142.146 28.5059 142.087 28.5649 142.012 28.6401C141.937 28.7153 141.765 28.812 141.507 28.9302C141.249 29.0483 140.98 29.1074 140.701 29.1074C140.164 29.1074 139.729 28.9624 139.391 28.6616C139.058 28.3608 138.886 28.001 138.886 27.5713C138.886 27.1309 139.031 26.7656 139.31 26.4702C139.595 26.1802 139.987 25.9868 140.481 25.8955L142.189 25.5894C142.189 25.3638 142.108 25.1812 141.942 25.0361C141.781 24.8965 141.55 24.8213 141.254 24.8213C141.013 24.8213 140.792 24.8696 140.588 24.9609C140.39 25.0522 140.25 25.1436 140.164 25.2402L140.041 25.3691L139.219 24.5474C139.24 24.5205 139.272 24.4829 139.31 24.4346C139.348 24.3862 139.434 24.3003 139.562 24.1821C139.691 24.064 139.836 23.9619 139.987 23.8706C140.143 23.7793 140.347 23.6934 140.594 23.6182C140.846 23.543 141.104 23.5 141.367 23.5C142.044 23.5 142.603 23.7041 143.032 24.1123C143.462 24.5205 143.677 25.0308 143.677 25.6431V29H142.194ZM141.088 27.8989C141.426 27.8989 141.695 27.7969 141.894 27.582C142.092 27.3672 142.189 27.0718 142.189 26.6904V26.5239L140.98 26.7441C140.578 26.8086 140.374 27.0127 140.374 27.3511C140.374 27.7163 140.615 27.8989 141.088 27.8989ZM145.771 23.0059V22.0176H147.093V23.7202H148.188V25.0415H147.093V27.1846C147.093 27.3564 147.152 27.4961 147.275 27.6143C147.399 27.7324 147.555 27.7915 147.748 27.7915C147.845 27.7915 147.936 27.7861 148.027 27.7646C148.119 27.7432 148.188 27.7217 148.237 27.7002L148.301 27.6787V28.9463C148.006 29.0591 147.673 29.1128 147.308 29.1074C146.169 29.1074 145.605 28.4844 145.605 27.2383V25.0415H144.67V23.7202H145.165C145.331 23.7202 145.476 23.6558 145.594 23.5215C145.712 23.3926 145.771 23.2207 145.771 23.0059ZM151.11 23.6074V29H149.623V23.6074H151.11ZM151.218 22.0713C151.218 22.3184 151.137 22.5171 150.981 22.6675C150.82 22.8179 150.605 22.8931 150.337 22.8931C150.084 22.8931 149.886 22.8179 149.735 22.6675C149.585 22.5171 149.515 22.3184 149.515 22.0713C149.515 21.8242 149.59 21.6201 149.741 21.4697C149.891 21.3193 150.09 21.2441 150.337 21.2441C150.605 21.2441 150.82 21.3193 150.981 21.4697C151.137 21.6201 151.218 21.8242 151.218 22.0713ZM153.807 26.3091C153.807 26.7119 153.936 27.0503 154.199 27.3242C154.457 27.5981 154.768 27.7324 155.128 27.7324C155.482 27.7324 155.794 27.5981 156.057 27.3242C156.315 27.0503 156.449 26.7119 156.449 26.3091C156.449 25.9062 156.315 25.5679 156.057 25.2886C155.794 25.0146 155.482 24.875 155.128 24.875C154.768 24.875 154.457 25.0146 154.199 25.2886C153.936 25.5679 153.807 25.9062 153.807 26.3091ZM157.985 26.3037C157.985 27.0557 157.701 27.7109 157.131 28.2695C156.562 28.8281 155.896 29.1074 155.128 29.1074C154.354 29.1074 153.688 28.8281 153.119 28.2695C152.55 27.7109 152.265 27.0557 152.265 26.3037C152.265 25.5571 152.55 24.9019 153.119 24.3433C153.688 23.7847 154.354 23.5054 155.128 23.5054C155.896 23.5054 156.562 23.7847 157.131 24.3433C157.701 24.9019 157.985 25.5571 157.985 26.3037ZM160.569 23.6074L160.563 24.2734C160.606 24.2144 160.671 24.1445 160.746 24.0586C160.827 23.9727 160.999 23.8599 161.267 23.7148C161.536 23.5752 161.815 23.5 162.105 23.5C162.723 23.5 163.228 23.7148 163.614 24.1392C164.001 24.5688 164.194 25.1436 164.194 25.8633V29H162.712V26.0298C162.712 25.7021 162.615 25.439 162.422 25.2349C162.229 25.0308 161.976 24.9287 161.67 24.9287C161.332 24.9287 161.063 25.0415 160.864 25.2617C160.666 25.4819 160.569 25.7935 160.569 26.1963V29H159.086V23.6074H160.569Z" fill="black"/>
<path d="M49.4004 41H45.0498V33.998H45.8018V40.3018H49.4004V41ZM51.3975 38.251L53.248 37.9482C53.248 37.5967 53.1357 37.3086 52.9111 37.084C52.6865 36.8643 52.3984 36.752 52.0469 36.752C51.793 36.752 51.5537 36.8105 51.3291 36.9277C51.1045 37.0449 50.9434 37.1621 50.8457 37.2793L50.6943 37.4502L50.2451 37.001C50.2646 36.9766 50.2891 36.9424 50.3232 36.9033C50.3574 36.8643 50.4307 36.791 50.5479 36.6885C50.665 36.5859 50.7871 36.4932 50.9141 36.4102C51.041 36.332 51.207 36.2588 51.4121 36.1953C51.6172 36.1318 51.832 36.0977 52.0469 36.0977C52.5938 36.0977 53.043 36.2783 53.4043 36.6299C53.7656 36.9863 53.9463 37.4258 53.9463 37.9482V41H53.248V40.3506C53.2334 40.3701 53.2139 40.3994 53.1846 40.4336C53.1553 40.4678 53.0967 40.5264 52.999 40.6143C52.9014 40.7021 52.7988 40.7754 52.6914 40.8438C52.5791 40.9121 52.4326 40.9707 52.252 41.0195C52.0713 41.0732 51.8857 41.0977 51.6953 41.0977C51.2168 41.0977 50.8115 40.9561 50.4844 40.6729C50.1572 40.3896 49.9961 40.0674 49.9961 39.7012C49.9961 39.3008 50.1133 38.9785 50.3574 38.7344C50.5967 38.4902 50.9434 38.3291 51.3975 38.251ZM51.6953 40.4482C52.1445 40.4482 52.5156 40.3018 52.8086 40.0039C53.1016 39.7109 53.248 39.3252 53.248 38.8516V38.5488L51.5977 38.8516C50.9971 38.9688 50.6943 39.252 50.6943 39.7012C50.6943 39.916 50.7822 40.0967 50.958 40.2383C51.1338 40.3799 51.3828 40.4482 51.6953 40.4482ZM58.4434 36.752L57.9355 37.25C57.9111 37.2109 57.8721 37.167 57.8232 37.1133C57.7744 37.0596 57.6572 36.9863 57.4766 36.8936C57.291 36.8008 57.0957 36.752 56.8906 36.752C56.6221 36.752 56.4072 36.8252 56.2412 36.9619C56.0752 37.1035 55.9922 37.2646 55.9922 37.4502C55.9922 37.6455 56.0801 37.7969 56.2607 37.9141C56.4365 38.0312 56.6562 38.1289 56.9102 38.1973C57.1641 38.2656 57.418 38.3486 57.6719 38.4365C57.9258 38.5244 58.1406 38.6709 58.3213 38.876C58.4971 39.0811 58.5898 39.3398 58.5898 39.6523C58.5898 40.0674 58.4287 40.4141 58.1162 40.6875C57.7988 40.9609 57.374 41.0977 56.8418 41.0977C56.6123 41.0977 56.3975 41.0684 56.1973 41.0098C55.9971 40.9512 55.8311 40.8828 55.7041 40.7998C55.5723 40.7217 55.46 40.6387 55.3623 40.5557C55.2646 40.4727 55.1963 40.3994 55.1523 40.3408L55.0889 40.248L55.5918 39.75C55.6016 39.7695 55.6211 39.7988 55.6455 39.8281C55.665 39.8574 55.7188 39.916 55.7969 39.9941C55.875 40.0723 55.9629 40.1455 56.0557 40.209C56.1436 40.2725 56.2607 40.3262 56.4072 40.375C56.5488 40.4238 56.6953 40.4482 56.8418 40.4482C57.1787 40.4482 57.4375 40.375 57.6182 40.2236C57.7988 40.0771 57.8916 39.8867 57.8916 39.6523C57.8916 39.457 57.7988 39.2959 57.6182 39.1689C57.4375 39.042 57.2227 38.9443 56.9688 38.8711C56.7148 38.7979 56.4658 38.7148 56.2119 38.627C55.958 38.5391 55.7383 38.3975 55.5576 38.2021C55.377 38.0068 55.2891 37.7578 55.2891 37.4502C55.2891 37.0889 55.4404 36.7764 55.7432 36.5029C56.0459 36.2344 56.4316 36.0977 56.8906 36.0977C56.998 36.0977 57.0908 36.1025 57.1738 36.1123C57.2568 36.1221 57.3154 36.1318 57.3496 36.1416L57.3887 36.1514C57.2861 35.9854 57.2373 35.7852 57.2422 35.5508C57.2422 35.1064 57.4229 34.7207 57.7891 34.3936C58.1553 34.0664 58.5898 33.9004 59.0928 33.9004C59.6104 33.9004 60.04 34.0664 60.3818 34.3936C60.7188 34.7207 60.8896 35.1211 60.8896 35.5996V36.2002H61.9395V36.8496H60.8896V39.7012C60.8896 40.2041 61.1045 40.4531 61.5391 40.4482C61.6465 40.4482 61.7539 40.4385 61.8613 40.4092C61.9688 40.3848 62.0518 40.3604 62.1104 40.3408L62.1934 40.3018V40.9512C61.9932 41.0537 61.7637 41.1025 61.5098 41.0977C61.0947 41.0977 60.7725 40.9805 60.5381 40.7363C60.3037 40.4922 60.1865 40.1504 60.1865 39.7012V36.8496H59.2881V36.2002H60.1865V35.5996C60.1865 35.3018 60.084 35.0527 59.8789 34.8525C59.6738 34.6523 59.4102 34.5498 59.0928 34.5498C58.7461 34.5498 58.4678 34.6523 58.2578 34.8574C58.043 35.0625 57.9404 35.3262 57.9404 35.6484C57.9404 35.8535 57.9795 36.0488 58.0625 36.2344C58.1455 36.4199 58.2285 36.5518 58.3115 36.6299L58.4434 36.752ZM68.7949 41V40.3506C68.7803 40.3701 68.7607 40.3994 68.7363 40.4336C68.707 40.4678 68.6484 40.5264 68.5508 40.6143C68.4531 40.7021 68.3506 40.7754 68.2432 40.8438C68.1309 40.9121 67.9844 40.9707 67.8037 41.0195C67.623 41.0732 67.4375 41.0977 67.2471 41.0977C66.6855 41.0977 66.2217 40.9072 65.8506 40.5166C65.4795 40.126 65.2988 39.623 65.2988 38.998V36.2002H65.9971V38.998C65.9971 39.418 66.124 39.7646 66.3877 40.0381C66.6465 40.3115 66.9639 40.4482 67.3447 40.4482C67.75 40.4482 68.0918 40.3018 68.375 39.999C68.6533 39.7012 68.7949 39.3203 68.7949 38.8516V36.2002H69.498V41H68.7949ZM71.8467 38.6025C71.8467 39.0957 72.0176 39.5254 72.3691 39.8965C72.7207 40.2676 73.1113 40.4482 73.5459 40.4482C73.9561 40.4482 74.3271 40.2725 74.6543 39.9111C74.9814 39.5498 75.1475 39.1152 75.1475 38.6025C75.1475 38.0898 74.9814 37.6553 74.6543 37.2939C74.3271 36.9326 73.9561 36.752 73.5459 36.752C73.1113 36.752 72.7207 36.9375 72.3691 37.3086C72.0176 37.6797 71.8467 38.1094 71.8467 38.6025ZM71.8467 40.248V43.1045H71.1484V36.2051H71.8467V36.957C71.8564 36.9375 71.8809 36.9033 71.915 36.8643C71.9492 36.8252 72.0176 36.7568 72.125 36.6592C72.2324 36.5615 72.3447 36.4736 72.4717 36.3955C72.5938 36.3174 72.75 36.249 72.9453 36.1904C73.1406 36.1318 73.3408 36.1025 73.5459 36.1025C74.1562 36.1025 74.6934 36.3467 75.1523 36.8398C75.6113 37.3281 75.8457 37.9189 75.8457 38.6025C75.8457 39.2861 75.6162 39.877 75.1572 40.3652C74.6982 40.8535 74.1611 41.0977 73.5459 41.0977C73.3408 41.0977 73.1406 41.0684 72.9502 41.0098C72.7598 40.9512 72.5986 40.8828 72.4717 40.7998C72.3398 40.7217 72.2275 40.6387 72.1299 40.5557C72.0322 40.4727 71.9639 40.3994 71.915 40.3408L71.8467 40.248ZM80.7432 38.6025C80.7432 38.1094 80.5674 37.6797 80.2158 37.3086C79.8643 36.9375 79.4736 36.752 79.0391 36.752C78.6289 36.752 78.2578 36.9326 77.9307 37.2939C77.6035 37.6553 77.4375 38.0898 77.4375 38.6025C77.4375 39.1152 77.6035 39.5498 77.9307 39.9111C78.2578 40.2725 78.6289 40.4482 79.0391 40.4482C79.4736 40.4482 79.8643 40.2676 80.2158 39.8965C80.5674 39.5254 80.7432 39.0957 80.7432 38.6025ZM80.7432 36.9521V34.0029H81.4414V41.0049H80.7432V40.2529C80.7285 40.2725 80.7041 40.3018 80.6699 40.3408C80.6406 40.3799 80.5674 40.4531 80.46 40.5508C80.3525 40.6484 80.2402 40.7314 80.1133 40.8096C79.9912 40.8877 79.835 40.9561 79.6396 41.0146C79.4443 41.0732 79.2441 41.1025 79.0391 41.1025C78.4287 41.1025 77.8916 40.8535 77.4326 40.3652C76.9736 39.877 76.7441 39.2861 76.7441 38.6025C76.7441 37.9189 76.9736 37.3281 77.4326 36.8398C77.8916 36.3467 78.4287 36.1025 79.0391 36.1025C79.2441 36.1025 79.4443 36.1318 79.6348 36.1904C79.8252 36.249 79.9863 36.3223 80.1133 36.4004C80.2451 36.4785 80.3574 36.5615 80.4551 36.6445C80.5527 36.7324 80.626 36.8008 80.6748 36.8594L80.7432 36.9521ZM84.1416 38.251L85.9922 37.9482C85.9922 37.5967 85.8799 37.3086 85.6553 37.084C85.4307 36.8643 85.1426 36.752 84.791 36.752C84.5371 36.752 84.2979 36.8105 84.0732 36.9277C83.8486 37.0449 83.6875 37.1621 83.5898 37.2793L83.4385 37.4502L82.9893 37.001C83.0088 36.9766 83.0332 36.9424 83.0674 36.9033C83.1016 36.8643 83.1748 36.791 83.292 36.6885C83.4092 36.5859 83.5312 36.4932 83.6582 36.4102C83.7852 36.332 83.9512 36.2588 84.1562 36.1953C84.3613 36.1318 84.5762 36.0977 84.791 36.0977C85.3379 36.0977 85.7871 36.2783 86.1484 36.6299C86.5098 36.9863 86.6904 37.4258 86.6904 37.9482V41H85.9922V40.3506C85.9775 40.3701 85.958 40.3994 85.9287 40.4336C85.8994 40.4678 85.8408 40.5264 85.7432 40.6143C85.6455 40.7021 85.543 40.7754 85.4355 40.8438C85.3232 40.9121 85.1768 40.9707 84.9961 41.0195C84.8154 41.0732 84.6299 41.0977 84.4395 41.0977C83.9609 41.0977 83.5557 40.9561 83.2285 40.6729C82.9014 40.3896 82.7402 40.0674 82.7402 39.7012C82.7402 39.3008 82.8574 38.9785 83.1016 38.7344C83.3408 38.4902 83.6875 38.3291 84.1416 38.251ZM84.4395 40.4482C84.8887 40.4482 85.2598 40.3018 85.5527 40.0039C85.8457 39.7109 85.9922 39.3252 85.9922 38.8516V38.5488L84.3418 38.8516C83.7412 38.9688 83.4385 39.252 83.4385 39.7012C83.4385 39.916 83.5264 40.0967 83.7021 40.2383C83.8779 40.3799 84.127 40.4482 84.4395 40.4482ZM88.7363 35.7021V34.5986H89.3857V36.2002H90.4355V36.8496H89.3857V39.7012C89.3857 40.2041 89.6006 40.4531 90.0352 40.4482C90.1426 40.4482 90.2451 40.4385 90.3525 40.4092C90.46 40.3848 90.5381 40.3604 90.5967 40.3408L90.6846 40.3018V40.9512C90.4844 41.0537 90.2598 41.1025 90.0059 41.0977C89.5908 41.0977 89.2686 40.9805 89.0342 40.7363C88.7998 40.4922 88.6875 40.1504 88.6875 39.7012V36.8496H87.7842V36.2002H88.3359C88.5996 36.2002 88.7363 36.0342 88.7363 35.7021ZM95.7285 38.8613L91.8271 38.8516C91.8516 39.2861 92.0273 39.6621 92.3594 39.9746C92.6914 40.292 93.0771 40.4482 93.5264 40.4482C93.8242 40.4482 94.1025 40.3848 94.3613 40.248C94.6152 40.1162 94.8008 39.9844 94.9082 39.8477L95.0791 39.6523L95.5283 40.1016C95.5088 40.1309 95.4795 40.165 95.4404 40.2139C95.4014 40.2627 95.3232 40.3408 95.1963 40.4531C95.0693 40.5654 94.9375 40.6631 94.791 40.751C94.6445 40.8389 94.459 40.917 94.2295 40.9902C94 41.0635 93.7656 41.0977 93.5264 41.0977C92.8721 41.0977 92.3057 40.8584 91.8369 40.3701C91.3633 39.8818 91.1289 39.291 91.1289 38.5977C91.1289 37.9043 91.3584 37.3184 91.8271 36.8301C92.2959 36.3418 92.8428 36.0977 93.4775 36.0977C94.1318 36.0977 94.6787 36.3271 95.1182 36.7812C95.5576 37.2354 95.7773 37.8066 95.7773 38.5L95.7285 38.8613ZM93.4775 36.752C93.0576 36.752 92.6914 36.9033 92.3789 37.1963C92.0664 37.4941 91.8809 37.8457 91.8271 38.251H95.0791C95.0254 37.8213 94.8496 37.46 94.5518 37.1768C94.2539 36.8936 93.8975 36.752 93.4775 36.752ZM100.675 38.6025C100.675 38.1094 100.499 37.6797 100.147 37.3086C99.7959 36.9375 99.4053 36.752 98.9707 36.752C98.5605 36.752 98.1895 36.9326 97.8623 37.2939C97.5352 37.6553 97.3691 38.0898 97.3691 38.6025C97.3691 39.1152 97.5352 39.5498 97.8623 39.9111C98.1895 40.2725 98.5605 40.4482 98.9707 40.4482C99.4053 40.4482 99.7959 40.2676 100.147 39.8965C100.499 39.5254 100.675 39.0957 100.675 38.6025ZM100.675 36.9521V34.0029H101.373V41.0049H100.675V40.2529C100.66 40.2725 100.636 40.3018 100.602 40.3408C100.572 40.3799 100.499 40.4531 100.392 40.5508C100.284 40.6484 100.172 40.7314 100.045 40.8096C99.9229 40.8877 99.7666 40.9561 99.5713 41.0146C99.376 41.0732 99.1758 41.1025 98.9707 41.1025C98.3604 41.1025 97.8232 40.8535 97.3643 40.3652C96.9053 39.877 96.6758 39.2861 96.6758 38.6025C96.6758 37.9189 96.9053 37.3281 97.3643 36.8398C97.8232 36.3467 98.3604 36.1025 98.9707 36.1025C99.1758 36.1025 99.376 36.1318 99.5664 36.1904C99.7568 36.249 99.918 36.3223 100.045 36.4004C100.177 36.4785 100.289 36.5615 100.387 36.6445C100.484 36.7324 100.558 36.8008 100.606 36.8594L100.675 36.9521ZM102.823 40.5996C102.823 40.4531 102.867 40.3359 102.955 40.2432C103.043 40.1504 103.165 40.1016 103.316 40.1016C103.473 40.1016 103.595 40.1504 103.683 40.2432C103.771 40.3359 103.814 40.4531 103.814 40.5996C103.814 40.7461 103.771 40.8682 103.683 40.9609C103.595 41.0537 103.473 41.0977 103.316 41.0977C103.165 41.0977 103.043 41.0537 102.955 40.9609C102.867 40.8682 102.823 40.7461 102.823 40.5996ZM102.823 36.6006C102.823 36.4541 102.867 36.3369 102.955 36.2393C103.043 36.1465 103.165 36.0977 103.316 36.0977C103.473 36.0977 103.595 36.1465 103.683 36.2393C103.771 36.3369 103.814 36.4541 103.814 36.6006C103.814 36.7471 103.771 36.8691 103.683 36.9619C103.595 37.0547 103.473 37.0986 103.316 37.0986C103.165 37.0986 103.043 37.0547 102.955 36.9619C102.867 36.8691 102.823 36.7471 102.823 36.6006ZM107.726 36.2002V36.8984C107.735 36.8789 107.755 36.8545 107.784 36.8154C107.809 36.7812 107.872 36.7178 107.97 36.6201C108.067 36.5273 108.17 36.4443 108.277 36.376C108.385 36.3076 108.531 36.2441 108.712 36.1855C108.893 36.127 109.078 36.0977 109.273 36.0977C109.85 36.0977 110.323 36.2881 110.685 36.6592C111.046 37.0352 111.227 37.5332 111.227 38.1533V41.0049H110.523V38.1533C110.523 37.7334 110.401 37.3916 110.157 37.1377C109.913 36.8838 109.605 36.7568 109.225 36.7568C108.795 36.7568 108.438 36.9033 108.155 37.2061C107.867 37.5039 107.726 37.8848 107.726 38.3486V41H107.027V36.2002H107.726ZM116.676 38.6025C116.676 38.085 116.5 37.6455 116.158 37.2891C115.816 36.9326 115.401 36.752 114.923 36.752C114.444 36.752 114.029 36.9326 113.688 37.2891C113.346 37.6455 113.175 38.0801 113.175 38.5977C113.175 39.1152 113.346 39.5498 113.688 39.9111C114.029 40.2725 114.444 40.4482 114.923 40.4482C115.401 40.4482 115.816 40.2725 116.158 39.916C116.5 39.5596 116.676 39.1201 116.676 38.6025ZM112.477 38.6025C112.477 37.8994 112.711 37.3086 113.189 36.8252C113.668 36.3418 114.244 36.0977 114.928 36.0977C115.606 36.0977 116.183 36.3418 116.656 36.8252C117.135 37.3086 117.369 37.8994 117.369 38.6025C117.369 39.3057 117.135 39.8965 116.656 40.3799C116.183 40.8584 115.606 41.1025 114.928 41.1025C114.244 41.1025 113.668 40.8584 113.189 40.3799C112.711 39.8965 112.477 39.3057 112.477 38.6025ZM121.178 36.2002H121.778L122.975 39.9014L124.225 36.2002H124.977L123.326 41H122.677L121.476 37.3477L120.279 41H119.625L117.975 36.2002H118.727L119.977 39.9014L121.178 36.2002Z" fill="#808080"/>
<path d="M230.866 25.075L231.927 24.015L237.706 29.792C237.799 29.8846 237.873 29.9946 237.924 30.1159C237.974 30.2371 238 30.3672 238 30.4985C238 30.6298 237.974 30.7598 237.924 30.8811C237.873 31.0023 237.799 31.1124 237.706 31.205L231.927 36.985L230.867 35.925L236.291 30.5L230.866 25.075Z" fill="#727272"/>
</g>
<g filter="url(#filter1_d_4159_7339)">
<rect x="4" y="68" width="246" height="61" rx="8" fill="#FFFCFC" shape-rendering="crispEdges"/>
<path d="M25.9998 91.2083C21.9728 91.2083 18.7082 94.4729 18.7082 98.5C18.7082 102.527 21.9728 105.792 25.9998 105.792C30.0269 105.792 33.2915 102.527 33.2915 98.5C33.2915 94.4729 30.0269 91.2083 25.9998 91.2083ZM17.6665 98.5C17.6665 93.8975 21.3973 90.1666 25.9998 90.1666C30.6023 90.1666 34.3332 93.8975 34.3332 98.5C34.3332 103.102 30.6023 106.833 25.9998 106.833C21.3973 106.833 17.6665 103.102 17.6665 98.5Z" fill="#C6C6C6"/>
<path d="M50.2144 89.2979H51.8633V97H50.4346L46.6426 92.1069V97H44.9883V89.2979H46.4224L50.2144 94.1963V89.2979ZM57.1431 97V96.4521C57.1001 96.5059 57.0356 96.5649 56.9604 96.6401C56.8799 96.7153 56.708 96.812 56.4395 96.9302C56.1709 97.0483 55.8916 97.1074 55.6016 97.1074C54.9839 97.1074 54.479 96.9033 54.0923 96.4897C53.7056 96.0762 53.5122 95.5229 53.5122 94.8354V91.6074H54.9946V94.6904C54.9946 94.9912 55.0913 95.2437 55.29 95.437C55.4888 95.6357 55.7412 95.7324 56.042 95.7324C56.375 95.7324 56.6436 95.625 56.8423 95.4048C57.041 95.1899 57.1431 94.8784 57.1431 94.4702V91.6074H58.6255V97H57.1431ZM66.8164 97L66.811 94.0352C66.811 93.6914 66.7305 93.4175 66.564 93.2241C66.4028 93.0308 66.188 92.9341 65.9302 92.9341C65.6455 92.9341 65.4092 93.0415 65.2212 93.2671C65.0386 93.4927 64.9419 93.8042 64.9419 94.2017V97.0054H63.4595V94.0352C63.4595 93.6914 63.3789 93.4175 63.2124 93.2241C63.0459 93.0308 62.8364 92.9341 62.5786 92.9341C62.2939 92.9341 62.0576 93.0415 61.8696 93.2671C61.6816 93.4927 61.585 93.8042 61.585 94.2017V97.0054H60.1025V91.6128H61.585V92.2734C61.6226 92.2144 61.6763 92.1445 61.7515 92.0586C61.8267 91.9727 61.9878 91.8599 62.2349 91.7202C62.4819 91.5752 62.7397 91.5054 63.019 91.5054C63.2339 91.5054 63.4326 91.5376 63.6152 91.6021C63.8032 91.6665 63.9536 91.7471 64.0664 91.833C64.1738 91.9189 64.2705 92.0103 64.3511 92.1016C64.4316 92.1929 64.4854 92.2734 64.5176 92.3433L64.5605 92.4399C64.5713 92.4185 64.5981 92.3809 64.6304 92.3379C64.6626 92.2949 64.7378 92.2197 64.8506 92.1123C64.9634 92.0049 65.0869 91.9136 65.2158 91.8276C65.3447 91.7417 65.5112 91.6665 65.7207 91.6021C65.9302 91.5376 66.1504 91.5 66.376 91.5C66.9668 91.5 67.4395 91.7041 67.7832 92.1016C68.127 92.499 68.3042 93.0898 68.3042 93.8633V97H66.8164ZM72.8696 91.5C73.5679 91.5 74.1694 91.7739 74.6851 92.3164C75.1953 92.8589 75.4531 93.5195 75.4531 94.3037C75.4531 95.0879 75.1953 95.7539 74.6797 96.2964C74.1641 96.8389 73.5625 97.1074 72.8696 97.1074C72.5581 97.1074 72.2734 97.0483 72.0049 96.9194C71.7363 96.7905 71.543 96.667 71.4355 96.5381L71.2744 96.3394V97H69.7866V89.2979H71.2744V92.2681C71.2852 92.2466 71.3066 92.2197 71.3389 92.1875C71.3657 92.1553 71.4302 92.0962 71.5269 92.0103C71.6235 91.9243 71.731 91.8438 71.8491 91.7739C71.9619 91.7041 72.1123 91.6396 72.2949 91.5859C72.4775 91.5322 72.6709 91.5 72.8696 91.5ZM72.5903 95.7915C72.9556 95.7915 73.2671 95.6519 73.5249 95.3726C73.7827 95.0933 73.9116 94.7388 73.9116 94.3037C73.9116 93.874 73.7827 93.5195 73.5249 93.2402C73.2671 92.9609 72.9556 92.8213 72.5903 92.8213C72.2251 92.8213 71.9136 92.9609 71.6558 93.2402C71.3979 93.5195 71.2744 93.874 71.2744 94.3037C71.2744 94.7388 71.3979 95.0933 71.6558 95.3726C71.9136 95.6519 72.2251 95.7915 72.5903 95.7915ZM81.6675 94.7979H77.7627C77.8164 95.0933 77.9722 95.3403 78.23 95.5444C78.4824 95.7485 78.8047 95.8452 79.1914 95.8452C79.4707 95.8452 79.7285 95.7915 79.9648 95.6841C80.2012 95.5767 80.373 95.4639 80.4697 95.3511L80.6255 95.1846L81.3936 96.1729L81.2915 96.2749C81.2485 96.3179 81.1519 96.3931 81.0068 96.5005C80.8564 96.6079 80.7007 96.7046 80.5396 96.7905C80.373 96.8765 80.1582 96.9463 79.895 97.0107C79.6318 97.0752 79.3633 97.1074 79.084 97.1074C78.2891 97.1074 77.6177 96.8335 77.0591 96.2856C76.5005 95.7378 76.2212 95.0771 76.2212 94.3037C76.2212 93.5356 76.4951 92.875 77.0483 92.3271C77.5962 91.7793 78.2568 91.5 79.0303 91.5C79.7983 91.5 80.4375 91.7578 80.9531 92.2734C81.4634 92.7891 81.7212 93.4282 81.7212 94.1963L81.6675 94.7979ZM79.0303 92.7676C78.7134 92.7676 78.4448 92.8589 78.2246 93.0415C78.0044 93.2241 77.8486 93.4658 77.7627 93.7559H80.2388C80.1797 93.4712 80.04 93.2349 79.8252 93.0469C79.6104 92.8643 79.3418 92.7676 79.0303 92.7676ZM86.0718 91.5537L86.0664 93.0469C85.959 93.0093 85.7925 92.9878 85.5723 92.9824C85.1855 92.9824 84.874 93.106 84.6484 93.353C84.4229 93.6001 84.3047 93.9546 84.3047 94.4165V97H82.8223V91.6074H84.3047V92.2681C84.3477 92.2197 84.4121 92.1553 84.4873 92.0747C84.5679 91.9941 84.7397 91.8867 85.0083 91.7524C85.2769 91.6235 85.5562 91.5537 85.8516 91.5537H86.0718ZM92.2915 91.5C92.9897 91.5 93.5913 91.7739 94.1069 92.3164C94.6172 92.8589 94.875 93.5195 94.875 94.3037C94.875 95.0879 94.6172 95.7539 94.1016 96.2964C93.5859 96.8389 92.9844 97.1074 92.2915 97.1074C91.98 97.1074 91.6953 97.0483 91.4268 96.9194C91.1582 96.7905 90.9648 96.667 90.8574 96.5381L90.6963 96.3394V97H89.2085V89.2979H90.6963V92.2681C90.707 92.2466 90.7285 92.2197 90.7607 92.1875C90.7876 92.1553 90.8521 92.0962 90.9487 92.0103C91.0454 91.9243 91.1528 91.8438 91.271 91.7739C91.3838 91.7041 91.5342 91.6396 91.7168 91.5859C91.8994 91.5322 92.0928 91.5 92.2915 91.5ZM92.0122 95.7915C92.3774 95.7915 92.689 95.6519 92.9468 95.3726C93.2046 95.0933 93.3335 94.7388 93.3335 94.3037C93.3335 93.874 93.2046 93.5195 92.9468 93.2402C92.689 92.9609 92.3774 92.8213 92.0122 92.8213C91.647 92.8213 91.3354 92.9609 91.0776 93.2402C90.8198 93.5195 90.6963 93.874 90.6963 94.3037C90.6963 94.7388 90.8198 95.0933 91.0776 95.3726C91.3354 95.6519 91.647 95.7915 92.0122 95.7915ZM97.5176 89.2979V97H96.0298V89.2979H97.5176ZM100.214 94.3091C100.214 94.7119 100.343 95.0503 100.606 95.3242C100.864 95.5981 101.175 95.7324 101.535 95.7324C101.89 95.7324 102.201 95.5981 102.464 95.3242C102.722 95.0503 102.856 94.7119 102.856 94.3091C102.856 93.9062 102.722 93.5679 102.464 93.2886C102.201 93.0146 101.89 92.875 101.535 92.875C101.175 92.875 100.864 93.0146 100.606 93.2886C100.343 93.5679 100.214 93.9062 100.214 94.3091ZM104.393 94.3037C104.393 95.0557 104.108 95.7109 103.539 96.2695C102.969 96.8281 102.303 97.1074 101.535 97.1074C100.762 97.1074 100.096 96.8281 99.5264 96.2695C98.957 95.7109 98.6724 95.0557 98.6724 94.3037C98.6724 93.5571 98.957 92.9019 99.5264 92.3433C100.096 91.7847 100.762 91.5054 101.535 91.5054C102.303 91.5054 102.969 91.7847 103.539 92.3433C104.108 92.9019 104.393 93.5571 104.393 94.3037ZM105.161 94.3037C105.161 93.5571 105.445 92.9019 106.02 92.3433C106.6 91.7847 107.282 91.5 108.072 91.5C108.351 91.5 108.62 91.543 108.872 91.6182C109.125 91.6934 109.329 91.7847 109.49 91.8921C109.651 91.9995 109.796 92.1016 109.919 92.209C110.048 92.3164 110.14 92.4131 110.193 92.4883L110.274 92.6011L109.339 93.5356C109.312 93.4873 109.264 93.4229 109.2 93.3369C109.135 93.2563 108.99 93.1489 108.77 93.02C108.55 92.8911 108.319 92.8213 108.072 92.8213C107.685 92.8213 107.347 92.9663 107.067 93.2563C106.788 93.5464 106.643 93.9009 106.643 94.3091C106.643 94.7173 106.788 95.0664 107.067 95.3564C107.352 95.6465 107.685 95.7915 108.072 95.7915C108.319 95.7915 108.55 95.7324 108.77 95.6143C108.99 95.4961 109.151 95.3779 109.248 95.2598L109.393 95.0771L110.274 96.0117C110.252 96.0439 110.226 96.0815 110.188 96.1353C110.15 96.189 110.064 96.2749 109.925 96.3984C109.791 96.522 109.646 96.6294 109.484 96.7261C109.329 96.8228 109.125 96.9087 108.872 96.9893C108.62 97.0698 108.351 97.1074 108.072 97.1074C107.282 97.1074 106.6 96.8281 106.025 96.2695C105.445 95.7109 105.161 95.0557 105.161 94.3037ZM113.47 94.9106L112.814 95.6787V97H111.327V89.2979H112.814V93.8096L114.737 91.6074H116.44L114.41 93.9224L116.553 97H114.904L113.47 94.9106ZM122.38 94.7979H118.476C118.529 95.0933 118.685 95.3403 118.943 95.5444C119.195 95.7485 119.518 95.8452 119.904 95.8452C120.184 95.8452 120.441 95.7915 120.678 95.6841C120.914 95.5767 121.086 95.4639 121.183 95.3511L121.338 95.1846L122.106 96.1729L122.004 96.2749C121.961 96.3179 121.865 96.3931 121.72 96.5005C121.569 96.6079 121.414 96.7046 121.252 96.7905C121.086 96.8765 120.871 96.9463 120.608 97.0107C120.345 97.0752 120.076 97.1074 119.797 97.1074C119.002 97.1074 118.331 96.8335 117.772 96.2856C117.213 95.7378 116.934 95.0771 116.934 94.3037C116.934 93.5356 117.208 92.875 117.761 92.3271C118.309 91.7793 118.97 91.5 119.743 91.5C120.511 91.5 121.15 91.7578 121.666 92.2734C122.176 92.7891 122.434 93.4282 122.434 94.1963L122.38 94.7979ZM119.743 92.7676C119.426 92.7676 119.158 92.8589 118.938 93.0415C118.717 93.2241 118.562 93.4658 118.476 93.7559H120.952C120.893 93.4712 120.753 93.2349 120.538 93.0469C120.323 92.8643 120.055 92.7676 119.743 92.7676ZM126.785 91.5537L126.779 93.0469C126.672 93.0093 126.505 92.9878 126.285 92.9824C125.898 92.9824 125.587 93.106 125.361 93.353C125.136 93.6001 125.018 93.9546 125.018 94.4165V97H123.535V91.6074H125.018V92.2681C125.061 92.2197 125.125 92.1553 125.2 92.0747C125.281 91.9941 125.453 91.8867 125.721 91.7524C125.99 91.6235 126.269 91.5537 126.564 91.5537H126.785Z" fill="black"/>
<path d="M49.4004 109H45.0498V101.998H45.8018V108.302H49.4004V109ZM51.3975 106.251L53.248 105.948C53.248 105.597 53.1357 105.309 52.9111 105.084C52.6865 104.864 52.3984 104.752 52.0469 104.752C51.793 104.752 51.5537 104.811 51.3291 104.928C51.1045 105.045 50.9434 105.162 50.8457 105.279L50.6943 105.45L50.2451 105.001C50.2646 104.977 50.2891 104.942 50.3232 104.903C50.3574 104.864 50.4307 104.791 50.5479 104.688C50.665 104.586 50.7871 104.493 50.9141 104.41C51.041 104.332 51.207 104.259 51.4121 104.195C51.6172 104.132 51.832 104.098 52.0469 104.098C52.5938 104.098 53.043 104.278 53.4043 104.63C53.7656 104.986 53.9463 105.426 53.9463 105.948V109H53.248V108.351C53.2334 108.37 53.2139 108.399 53.1846 108.434C53.1553 108.468 53.0967 108.526 52.999 108.614C52.9014 108.702 52.7988 108.775 52.6914 108.844C52.5791 108.912 52.4326 108.971 52.252 109.02C52.0713 109.073 51.8857 109.098 51.6953 109.098C51.2168 109.098 50.8115 108.956 50.4844 108.673C50.1572 108.39 49.9961 108.067 49.9961 107.701C49.9961 107.301 50.1133 106.979 50.3574 106.734C50.5967 106.49 50.9434 106.329 51.3975 106.251ZM51.6953 108.448C52.1445 108.448 52.5156 108.302 52.8086 108.004C53.1016 107.711 53.248 107.325 53.248 106.852V106.549L51.5977 106.852C50.9971 106.969 50.6943 107.252 50.6943 107.701C50.6943 107.916 50.7822 108.097 50.958 108.238C51.1338 108.38 51.3828 108.448 51.6953 108.448ZM58.4434 104.752L57.9355 105.25C57.9111 105.211 57.8721 105.167 57.8232 105.113C57.7744 105.06 57.6572 104.986 57.4766 104.894C57.291 104.801 57.0957 104.752 56.8906 104.752C56.6221 104.752 56.4072 104.825 56.2412 104.962C56.0752 105.104 55.9922 105.265 55.9922 105.45C55.9922 105.646 56.0801 105.797 56.2607 105.914C56.4365 106.031 56.6562 106.129 56.9102 106.197C57.1641 106.266 57.418 106.349 57.6719 106.437C57.9258 106.524 58.1406 106.671 58.3213 106.876C58.4971 107.081 58.5898 107.34 58.5898 107.652C58.5898 108.067 58.4287 108.414 58.1162 108.688C57.7988 108.961 57.374 109.098 56.8418 109.098C56.6123 109.098 56.3975 109.068 56.1973 109.01C55.9971 108.951 55.8311 108.883 55.7041 108.8C55.5723 108.722 55.46 108.639 55.3623 108.556C55.2646 108.473 55.1963 108.399 55.1523 108.341L55.0889 108.248L55.5918 107.75C55.6016 107.77 55.6211 107.799 55.6455 107.828C55.665 107.857 55.7188 107.916 55.7969 107.994C55.875 108.072 55.9629 108.146 56.0557 108.209C56.1436 108.272 56.2607 108.326 56.4072 108.375C56.5488 108.424 56.6953 108.448 56.8418 108.448C57.1787 108.448 57.4375 108.375 57.6182 108.224C57.7988 108.077 57.8916 107.887 57.8916 107.652C57.8916 107.457 57.7988 107.296 57.6182 107.169C57.4375 107.042 57.2227 106.944 56.9688 106.871C56.7148 106.798 56.4658 106.715 56.2119 106.627C55.958 106.539 55.7383 106.397 55.5576 106.202C55.377 106.007 55.2891 105.758 55.2891 105.45C55.2891 105.089 55.4404 104.776 55.7432 104.503C56.0459 104.234 56.4316 104.098 56.8906 104.098C56.998 104.098 57.0908 104.103 57.1738 104.112C57.2568 104.122 57.3154 104.132 57.3496 104.142L57.3887 104.151C57.2861 103.985 57.2373 103.785 57.2422 103.551C57.2422 103.106 57.4229 102.721 57.7891 102.394C58.1553 102.066 58.5898 101.9 59.0928 101.9C59.6104 101.9 60.04 102.066 60.3818 102.394C60.7188 102.721 60.8896 103.121 60.8896 103.6V104.2H61.9395V104.85H60.8896V107.701C60.8896 108.204 61.1045 108.453 61.5391 108.448C61.6465 108.448 61.7539 108.438 61.8613 108.409C61.9688 108.385 62.0518 108.36 62.1104 108.341L62.1934 108.302V108.951C61.9932 109.054 61.7637 109.103 61.5098 109.098C61.0947 109.098 60.7725 108.98 60.5381 108.736C60.3037 108.492 60.1865 108.15 60.1865 107.701V104.85H59.2881V104.2H60.1865V103.6C60.1865 103.302 60.084 103.053 59.8789 102.853C59.6738 102.652 59.4102 102.55 59.0928 102.55C58.7461 102.55 58.4678 102.652 58.2578 102.857C58.043 103.062 57.9404 103.326 57.9404 103.648C57.9404 103.854 57.9795 104.049 58.0625 104.234C58.1455 104.42 58.2285 104.552 58.3115 104.63L58.4434 104.752ZM68.7949 109V108.351C68.7803 108.37 68.7607 108.399 68.7363 108.434C68.707 108.468 68.6484 108.526 68.5508 108.614C68.4531 108.702 68.3506 108.775 68.2432 108.844C68.1309 108.912 67.9844 108.971 67.8037 109.02C67.623 109.073 67.4375 109.098 67.2471 109.098C66.6855 109.098 66.2217 108.907 65.8506 108.517C65.4795 108.126 65.2988 107.623 65.2988 106.998V104.2H65.9971V106.998C65.9971 107.418 66.124 107.765 66.3877 108.038C66.6465 108.312 66.9639 108.448 67.3447 108.448C67.75 108.448 68.0918 108.302 68.375 107.999C68.6533 107.701 68.7949 107.32 68.7949 106.852V104.2H69.498V109H68.7949ZM71.8467 106.603C71.8467 107.096 72.0176 107.525 72.3691 107.896C72.7207 108.268 73.1113 108.448 73.5459 108.448C73.9561 108.448 74.3271 108.272 74.6543 107.911C74.9814 107.55 75.1475 107.115 75.1475 106.603C75.1475 106.09 74.9814 105.655 74.6543 105.294C74.3271 104.933 73.9561 104.752 73.5459 104.752C73.1113 104.752 72.7207 104.938 72.3691 105.309C72.0176 105.68 71.8467 106.109 71.8467 106.603ZM71.8467 108.248V111.104H71.1484V104.205H71.8467V104.957C71.8564 104.938 71.8809 104.903 71.915 104.864C71.9492 104.825 72.0176 104.757 72.125 104.659C72.2324 104.562 72.3447 104.474 72.4717 104.396C72.5938 104.317 72.75 104.249 72.9453 104.19C73.1406 104.132 73.3408 104.103 73.5459 104.103C74.1562 104.103 74.6934 104.347 75.1523 104.84C75.6113 105.328 75.8457 105.919 75.8457 106.603C75.8457 107.286 75.6162 107.877 75.1572 108.365C74.6982 108.854 74.1611 109.098 73.5459 109.098C73.3408 109.098 73.1406 109.068 72.9502 109.01C72.7598 108.951 72.5986 108.883 72.4717 108.8C72.3398 108.722 72.2275 108.639 72.1299 108.556C72.0322 108.473 71.9639 108.399 71.915 108.341L71.8467 108.248ZM80.7432 106.603C80.7432 106.109 80.5674 105.68 80.2158 105.309C79.8643 104.938 79.4736 104.752 79.0391 104.752C78.6289 104.752 78.2578 104.933 77.9307 105.294C77.6035 105.655 77.4375 106.09 77.4375 106.603C77.4375 107.115 77.6035 107.55 77.9307 107.911C78.2578 108.272 78.6289 108.448 79.0391 108.448C79.4736 108.448 79.8643 108.268 80.2158 107.896C80.5674 107.525 80.7432 107.096 80.7432 106.603ZM80.7432 104.952V102.003H81.4414V109.005H80.7432V108.253C80.7285 108.272 80.7041 108.302 80.6699 108.341C80.6406 108.38 80.5674 108.453 80.46 108.551C80.3525 108.648 80.2402 108.731 80.1133 108.81C79.9912 108.888 79.835 108.956 79.6396 109.015C79.4443 109.073 79.2441 109.103 79.0391 109.103C78.4287 109.103 77.8916 108.854 77.4326 108.365C76.9736 107.877 76.7441 107.286 76.7441 106.603C76.7441 105.919 76.9736 105.328 77.4326 104.84C77.8916 104.347 78.4287 104.103 79.0391 104.103C79.2441 104.103 79.4443 104.132 79.6348 104.19C79.8252 104.249 79.9863 104.322 80.1133 104.4C80.2451 104.479 80.3574 104.562 80.4551 104.645C80.5527 104.732 80.626 104.801 80.6748 104.859L80.7432 104.952ZM84.1416 106.251L85.9922 105.948C85.9922 105.597 85.8799 105.309 85.6553 105.084C85.4307 104.864 85.1426 104.752 84.791 104.752C84.5371 104.752 84.2979 104.811 84.0732 104.928C83.8486 105.045 83.6875 105.162 83.5898 105.279L83.4385 105.45L82.9893 105.001C83.0088 104.977 83.0332 104.942 83.0674 104.903C83.1016 104.864 83.1748 104.791 83.292 104.688C83.4092 104.586 83.5312 104.493 83.6582 104.41C83.7852 104.332 83.9512 104.259 84.1562 104.195C84.3613 104.132 84.5762 104.098 84.791 104.098C85.3379 104.098 85.7871 104.278 86.1484 104.63C86.5098 104.986 86.6904 105.426 86.6904 105.948V109H85.9922V108.351C85.9775 108.37 85.958 108.399 85.9287 108.434C85.8994 108.468 85.8408 108.526 85.7432 108.614C85.6455 108.702 85.543 108.775 85.4355 108.844C85.3232 108.912 85.1768 108.971 84.9961 109.02C84.8154 109.073 84.6299 109.098 84.4395 109.098C83.9609 109.098 83.5557 108.956 83.2285 108.673C82.9014 108.39 82.7402 108.067 82.7402 107.701C82.7402 107.301 82.8574 106.979 83.1016 106.734C83.3408 106.49 83.6875 106.329 84.1416 106.251ZM84.4395 108.448C84.8887 108.448 85.2598 108.302 85.5527 108.004C85.8457 107.711 85.9922 107.325 85.9922 106.852V106.549L84.3418 106.852C83.7412 106.969 83.4385 107.252 83.4385 107.701C83.4385 107.916 83.5264 108.097 83.7021 108.238C83.8779 108.38 84.127 108.448 84.4395 108.448ZM88.7363 103.702V102.599H89.3857V104.2H90.4355V104.85H89.3857V107.701C89.3857 108.204 89.6006 108.453 90.0352 108.448C90.1426 108.448 90.2451 108.438 90.3525 108.409C90.46 108.385 90.5381 108.36 90.5967 108.341L90.6846 108.302V108.951C90.4844 109.054 90.2598 109.103 90.0059 109.098C89.5908 109.098 89.2686 108.98 89.0342 108.736C88.7998 108.492 88.6875 108.15 88.6875 107.701V104.85H87.7842V104.2H88.3359C88.5996 104.2 88.7363 104.034 88.7363 103.702ZM95.7285 106.861L91.8271 106.852C91.8516 107.286 92.0273 107.662 92.3594 107.975C92.6914 108.292 93.0771 108.448 93.5264 108.448C93.8242 108.448 94.1025 108.385 94.3613 108.248C94.6152 108.116 94.8008 107.984 94.9082 107.848L95.0791 107.652L95.5283 108.102C95.5088 108.131 95.4795 108.165 95.4404 108.214C95.4014 108.263 95.3232 108.341 95.1963 108.453C95.0693 108.565 94.9375 108.663 94.791 108.751C94.6445 108.839 94.459 108.917 94.2295 108.99C94 109.063 93.7656 109.098 93.5264 109.098C92.8721 109.098 92.3057 108.858 91.8369 108.37C91.3633 107.882 91.1289 107.291 91.1289 106.598C91.1289 105.904 91.3584 105.318 91.8271 104.83C92.2959 104.342 92.8428 104.098 93.4775 104.098C94.1318 104.098 94.6787 104.327 95.1182 104.781C95.5576 105.235 95.7773 105.807 95.7773 106.5L95.7285 106.861ZM93.4775 104.752C93.0576 104.752 92.6914 104.903 92.3789 105.196C92.0664 105.494 91.8809 105.846 91.8271 106.251H95.0791C95.0254 105.821 94.8496 105.46 94.5518 105.177C94.2539 104.894 93.8975 104.752 93.4775 104.752ZM100.675 106.603C100.675 106.109 100.499 105.68 100.147 105.309C99.7959 104.938 99.4053 104.752 98.9707 104.752C98.5605 104.752 98.1895 104.933 97.8623 105.294C97.5352 105.655 97.3691 106.09 97.3691 106.603C97.3691 107.115 97.5352 107.55 97.8623 107.911C98.1895 108.272 98.5605 108.448 98.9707 108.448C99.4053 108.448 99.7959 108.268 100.147 107.896C100.499 107.525 100.675 107.096 100.675 106.603ZM100.675 104.952V102.003H101.373V109.005H100.675V108.253C100.66 108.272 100.636 108.302 100.602 108.341C100.572 108.38 100.499 108.453 100.392 108.551C100.284 108.648 100.172 108.731 100.045 108.81C99.9229 108.888 99.7666 108.956 99.5713 109.015C99.376 109.073 99.1758 109.103 98.9707 109.103C98.3604 109.103 97.8232 108.854 97.3643 108.365C96.9053 107.877 96.6758 107.286 96.6758 106.603C96.6758 105.919 96.9053 105.328 97.3643 104.84C97.8232 104.347 98.3604 104.103 98.9707 104.103C99.1758 104.103 99.376 104.132 99.5664 104.19C99.7568 104.249 99.918 104.322 100.045 104.4C100.177 104.479 100.289 104.562 100.387 104.645C100.484 104.732 100.558 104.801 100.606 104.859L100.675 104.952ZM102.823 108.6C102.823 108.453 102.867 108.336 102.955 108.243C103.043 108.15 103.165 108.102 103.316 108.102C103.473 108.102 103.595 108.15 103.683 108.243C103.771 108.336 103.814 108.453 103.814 108.6C103.814 108.746 103.771 108.868 103.683 108.961C103.595 109.054 103.473 109.098 103.316 109.098C103.165 109.098 103.043 109.054 102.955 108.961C102.867 108.868 102.823 108.746 102.823 108.6ZM102.823 104.601C102.823 104.454 102.867 104.337 102.955 104.239C103.043 104.146 103.165 104.098 103.316 104.098C103.473 104.098 103.595 104.146 103.683 104.239C103.771 104.337 103.814 104.454 103.814 104.601C103.814 104.747 103.771 104.869 103.683 104.962C103.595 105.055 103.473 105.099 103.316 105.099C103.165 105.099 103.043 105.055 102.955 104.962C102.867 104.869 102.823 104.747 102.823 104.601ZM107.726 104.2V104.898C107.735 104.879 107.755 104.854 107.784 104.815C107.809 104.781 107.872 104.718 107.97 104.62C108.067 104.527 108.17 104.444 108.277 104.376C108.385 104.308 108.531 104.244 108.712 104.186C108.893 104.127 109.078 104.098 109.273 104.098C109.85 104.098 110.323 104.288 110.685 104.659C111.046 105.035 111.227 105.533 111.227 106.153V109.005H110.523V106.153C110.523 105.733 110.401 105.392 110.157 105.138C109.913 104.884 109.605 104.757 109.225 104.757C108.795 104.757 108.438 104.903 108.155 105.206C107.867 105.504 107.726 105.885 107.726 106.349V109H107.027V104.2H107.726ZM116.676 106.603C116.676 106.085 116.5 105.646 116.158 105.289C115.816 104.933 115.401 104.752 114.923 104.752C114.444 104.752 114.029 104.933 113.688 105.289C113.346 105.646 113.175 106.08 113.175 106.598C113.175 107.115 113.346 107.55 113.688 107.911C114.029 108.272 114.444 108.448 114.923 108.448C115.401 108.448 115.816 108.272 116.158 107.916C116.5 107.56 116.676 107.12 116.676 106.603ZM112.477 106.603C112.477 105.899 112.711 105.309 113.189 104.825C113.668 104.342 114.244 104.098 114.928 104.098C115.606 104.098 116.183 104.342 116.656 104.825C117.135 105.309 117.369 105.899 117.369 106.603C117.369 107.306 117.135 107.896 116.656 108.38C116.183 108.858 115.606 109.103 114.928 109.103C114.244 109.103 113.668 108.858 113.189 108.38C112.711 107.896 112.477 107.306 112.477 106.603ZM121.178 104.2H121.778L122.975 107.901L124.225 104.2H124.977L123.326 109H122.677L121.476 105.348L120.279 109H119.625L117.975 104.2H118.727L119.977 107.901L121.178 104.2Z" fill="#808080"/>
<path d="M230.866 93.075L231.927 92.015L237.706 97.792C237.799 97.8846 237.873 97.9946 237.924 98.1159C237.974 98.2371 238 98.3672 238 98.4985C238 98.6298 237.974 98.7598 237.924 98.8811C237.873 99.0023 237.799 99.1124 237.706 99.205L231.927 104.985L230.867 103.925L236.291 98.5L230.866 93.075Z" fill="#727272"/>
</g>
<g filter="url(#filter2_d_4159_7339)">
<rect x="4" y="136" width="246" height="61" rx="8" fill="#FFFCFC" shape-rendering="crispEdges"/>
<path d="M25.9998 159.208C21.9728 159.208 18.7082 162.473 18.7082 166.5C18.7082 170.527 21.9728 173.792 25.9998 173.792C30.0269 173.792 33.2915 170.527 33.2915 166.5C33.2915 162.473 30.0269 159.208 25.9998 159.208ZM17.6665 166.5C17.6665 161.897 21.3973 158.167 25.9998 158.167C30.6023 158.167 34.3332 161.897 34.3332 166.5C34.3332 171.102 30.6023 174.833 25.9998 174.833C21.3973 174.833 17.6665 171.102 17.6665 166.5Z" fill="#C6C6C6"/>
<path d="M49.1724 157.298H50.7085L52.3037 162.578L53.8989 157.298H55.6606L53.1309 165H51.5894L49.9404 159.828L48.2915 165H46.75L44.2202 157.298H45.9819L47.5771 162.578L49.1724 157.298ZM61.2144 162.798H57.3096C57.3633 163.093 57.519 163.34 57.7769 163.544C58.0293 163.749 58.3516 163.845 58.7383 163.845C59.0176 163.845 59.2754 163.792 59.5117 163.684C59.748 163.577 59.9199 163.464 60.0166 163.351L60.1724 163.185L60.9404 164.173L60.8384 164.275C60.7954 164.318 60.6987 164.393 60.5537 164.5C60.4033 164.608 60.2476 164.705 60.0864 164.791C59.9199 164.876 59.7051 164.946 59.4419 165.011C59.1787 165.075 58.9102 165.107 58.6309 165.107C57.8359 165.107 57.1646 164.833 56.606 164.286C56.0474 163.738 55.7681 163.077 55.7681 162.304C55.7681 161.536 56.042 160.875 56.5952 160.327C57.1431 159.779 57.8037 159.5 58.5771 159.5C59.3452 159.5 59.9844 159.758 60.5 160.273C61.0103 160.789 61.2681 161.428 61.2681 162.196L61.2144 162.798ZM58.5771 160.768C58.2603 160.768 57.9917 160.859 57.7715 161.042C57.5513 161.224 57.3955 161.466 57.3096 161.756H59.7856C59.7266 161.471 59.5869 161.235 59.3721 161.047C59.1572 160.864 58.8887 160.768 58.5771 160.768ZM65.5112 159.5C66.2095 159.5 66.811 159.774 67.3267 160.316C67.8369 160.859 68.0947 161.52 68.0947 162.304C68.0947 163.088 67.8369 163.754 67.3213 164.296C66.8057 164.839 66.2041 165.107 65.5112 165.107C65.1997 165.107 64.915 165.048 64.6465 164.919C64.3779 164.791 64.1846 164.667 64.0771 164.538L63.916 164.339V165H62.4282V157.298H63.916V160.268C63.9268 160.247 63.9482 160.22 63.9805 160.188C64.0073 160.155 64.0718 160.096 64.1685 160.01C64.2651 159.924 64.3726 159.844 64.4907 159.774C64.6035 159.704 64.7539 159.64 64.9365 159.586C65.1191 159.532 65.3125 159.5 65.5112 159.5ZM65.2319 163.792C65.5972 163.792 65.9087 163.652 66.1665 163.373C66.4243 163.093 66.5532 162.739 66.5532 162.304C66.5532 161.874 66.4243 161.52 66.1665 161.24C65.9087 160.961 65.5972 160.821 65.2319 160.821C64.8667 160.821 64.5552 160.961 64.2974 161.24C64.0396 161.52 63.916 161.874 63.916 162.304C63.916 162.739 64.0396 163.093 64.2974 163.373C64.5552 163.652 64.8667 163.792 65.2319 163.792ZM72.9341 160.327L72.166 161.203C72.1445 161.176 72.1069 161.138 72.0586 161.084C72.0103 161.036 71.9082 160.972 71.7578 160.891C71.6021 160.811 71.4463 160.768 71.2852 160.768C71.0811 160.768 70.9199 160.816 70.8018 160.902C70.6836 160.988 70.6245 161.09 70.6245 161.203C70.6245 161.342 70.7051 161.46 70.877 161.552C71.0435 161.648 71.2476 161.729 71.4893 161.804C71.731 161.879 71.978 161.965 72.2251 162.067C72.4722 162.169 72.6763 162.336 72.8481 162.562C73.0146 162.787 73.1006 163.072 73.1006 163.405C73.1006 163.888 72.9072 164.296 72.5259 164.619C72.1445 164.946 71.6235 165.107 70.9575 165.107C70.6675 165.107 70.3989 165.075 70.1411 165.005C69.8833 164.941 69.6738 164.855 69.5127 164.758C69.3516 164.662 69.2065 164.57 69.0884 164.474C68.9702 164.377 68.8843 164.296 68.8306 164.232L68.7554 164.119L69.5825 163.297C69.6094 163.34 69.6523 163.399 69.7168 163.464C69.7812 163.528 69.9102 163.62 70.1143 163.732C70.313 163.845 70.5225 163.899 70.7373 163.899C70.9736 163.899 71.1509 163.856 71.269 163.765C71.3872 163.673 71.4517 163.555 71.4517 163.405C71.4517 163.26 71.3657 163.136 71.1992 163.04C71.0273 162.943 70.8232 162.857 70.5762 162.782C70.3291 162.707 70.082 162.621 69.8403 162.513C69.5986 162.411 69.3945 162.25 69.228 162.03C69.0562 161.815 68.9756 161.536 68.9756 161.203C68.9756 160.773 69.1743 160.381 69.5771 160.026C69.98 159.677 70.4741 159.5 71.0649 159.5C71.4355 159.5 71.7793 159.57 72.0908 159.709C72.4023 159.849 72.6226 159.989 72.7461 160.118L72.9341 160.327ZM75.7432 159.607V165H74.2554V159.607H75.7432ZM75.8506 158.071C75.8506 158.318 75.77 158.517 75.6143 158.667C75.4531 158.818 75.2383 158.893 74.9697 158.893C74.7173 158.893 74.5186 158.818 74.3682 158.667C74.2178 158.517 74.1479 158.318 74.1479 158.071C74.1479 157.824 74.2231 157.62 74.3735 157.47C74.5239 157.319 74.7227 157.244 74.9697 157.244C75.2383 157.244 75.4531 157.319 75.6143 157.47C75.77 157.62 75.8506 157.824 75.8506 158.071ZM77.8916 159.006V158.018H79.2129V159.72H80.3086V161.042H79.2129V163.185C79.2129 163.356 79.272 163.496 79.3955 163.614C79.519 163.732 79.6748 163.792 79.8682 163.792C79.9648 163.792 80.0562 163.786 80.1475 163.765C80.2388 163.743 80.3086 163.722 80.3569 163.7L80.4214 163.679V164.946C80.126 165.059 79.793 165.113 79.4277 165.107C78.2891 165.107 77.7251 164.484 77.7251 163.238V161.042H76.7905V159.72H77.2847C77.4512 159.72 77.5962 159.656 77.7144 159.521C77.8325 159.393 77.8916 159.221 77.8916 159.006ZM86.3511 162.798H82.4463C82.5 163.093 82.6558 163.34 82.9136 163.544C83.166 163.749 83.4883 163.845 83.875 163.845C84.1543 163.845 84.4121 163.792 84.6484 163.684C84.8848 163.577 85.0566 163.464 85.1533 163.351L85.3091 163.185L86.0771 164.173L85.9751 164.275C85.9321 164.318 85.8354 164.393 85.6904 164.5C85.54 164.608 85.3843 164.705 85.2231 164.791C85.0566 164.876 84.8418 164.946 84.5786 165.011C84.3154 165.075 84.0469 165.107 83.7676 165.107C82.9727 165.107 82.3013 164.833 81.7427 164.286C81.1841 163.738 80.9048 163.077 80.9048 162.304C80.9048 161.536 81.1787 160.875 81.7319 160.327C82.2798 159.779 82.9404 159.5 83.7139 159.5C84.4819 159.5 85.1211 159.758 85.6367 160.273C86.147 160.789 86.4048 161.428 86.4048 162.196L86.3511 162.798ZM83.7139 160.768C83.397 160.768 83.1284 160.859 82.9082 161.042C82.688 161.224 82.5322 161.466 82.4463 161.756H84.9224C84.8633 161.471 84.7236 161.235 84.5088 161.047C84.2939 160.864 84.0254 160.768 83.7139 160.768ZM92.8447 165.107C92.5332 165.107 92.2485 165.048 91.98 164.919C91.7114 164.791 91.5234 164.667 91.416 164.538L91.2495 164.339V167.31H89.7671V159.607H91.2495V160.268C91.2603 160.247 91.2817 160.22 91.314 160.188C91.3462 160.155 91.4106 160.096 91.5073 160.01C91.604 159.924 91.7114 159.844 91.8296 159.774C91.9424 159.704 92.0928 159.64 92.2754 159.586C92.458 159.532 92.646 159.5 92.8447 159.5C93.543 159.5 94.1445 159.774 94.6602 160.316C95.1758 160.859 95.4336 161.52 95.4336 162.304C95.4336 163.088 95.1758 163.754 94.6602 164.296C94.1445 164.839 93.543 165.107 92.8447 165.107ZM92.5708 160.821C92.2056 160.821 91.894 160.961 91.6362 161.24C91.3784 161.52 91.2495 161.874 91.2495 162.309C91.2495 162.739 91.3784 163.099 91.6362 163.378C91.894 163.657 92.2056 163.797 92.5708 163.797C92.936 163.797 93.2476 163.657 93.5054 163.378C93.7632 163.099 93.8921 162.739 93.8921 162.309C93.8921 161.874 93.7632 161.52 93.5054 161.24C93.2476 160.961 92.936 160.821 92.5708 160.821ZM99.7788 159.554L99.7734 161.047C99.666 161.009 99.4995 160.988 99.2793 160.982C98.8926 160.982 98.5811 161.106 98.3555 161.353C98.1299 161.6 98.0117 161.955 98.0117 162.417V165H96.5293V159.607H98.0117V160.268C98.0547 160.22 98.1191 160.155 98.1943 160.075C98.2749 159.994 98.4468 159.887 98.7153 159.752C98.9839 159.624 99.2632 159.554 99.5586 159.554H99.7788ZM101.814 162.309C101.814 162.712 101.943 163.05 102.207 163.324C102.464 163.598 102.776 163.732 103.136 163.732C103.49 163.732 103.802 163.598 104.065 163.324C104.323 163.05 104.457 162.712 104.457 162.309C104.457 161.906 104.323 161.568 104.065 161.289C103.802 161.015 103.49 160.875 103.136 160.875C102.776 160.875 102.464 161.015 102.207 161.289C101.943 161.568 101.814 161.906 101.814 162.309ZM105.993 162.304C105.993 163.056 105.708 163.711 105.139 164.27C104.57 164.828 103.904 165.107 103.136 165.107C102.362 165.107 101.696 164.828 101.127 164.27C100.558 163.711 100.273 163.056 100.273 162.304C100.273 161.557 100.558 160.902 101.127 160.343C101.696 159.785 102.362 159.505 103.136 159.505C103.904 159.505 104.57 159.785 105.139 160.343C105.708 160.902 105.993 161.557 105.993 162.304ZM107.755 159.006V158.018H109.076V159.72H110.172V161.042H109.076V163.185C109.076 163.356 109.135 163.496 109.259 163.614C109.382 163.732 109.538 163.792 109.731 163.792C109.828 163.792 109.919 163.786 110.011 163.765C110.102 163.743 110.172 163.722 110.22 163.7L110.285 163.679V164.946C109.989 165.059 109.656 165.113 109.291 165.107C108.152 165.107 107.588 164.484 107.588 163.238V161.042H106.654V159.72H107.148C107.314 159.72 107.459 159.656 107.578 159.521C107.696 159.393 107.755 159.221 107.755 159.006ZM116.214 162.798H112.31C112.363 163.093 112.519 163.34 112.777 163.544C113.029 163.749 113.352 163.845 113.738 163.845C114.018 163.845 114.275 163.792 114.512 163.684C114.748 163.577 114.92 163.464 115.017 163.351L115.172 163.185L115.94 164.173L115.838 164.275C115.795 164.318 115.699 164.393 115.554 164.5C115.403 164.608 115.248 164.705 115.086 164.791C114.92 164.876 114.705 164.946 114.442 165.011C114.179 165.075 113.91 165.107 113.631 165.107C112.836 165.107 112.165 164.833 111.606 164.286C111.047 163.738 110.768 163.077 110.768 162.304C110.768 161.536 111.042 160.875 111.595 160.327C112.143 159.779 112.804 159.5 113.577 159.5C114.345 159.5 114.984 159.758 115.5 160.273C116.01 160.789 116.268 161.428 116.268 162.196L116.214 162.798ZM113.577 160.768C113.26 160.768 112.992 160.859 112.771 161.042C112.551 161.224 112.396 161.466 112.31 161.756H114.786C114.727 161.471 114.587 161.235 114.372 161.047C114.157 160.864 113.889 160.768 113.577 160.768ZM122.16 160.601L121.226 161.536C121.193 161.487 121.145 161.423 121.081 161.337C121.016 161.256 120.871 161.149 120.651 161.02C120.431 160.891 120.2 160.821 119.958 160.821C119.566 160.821 119.228 160.966 118.948 161.256C118.669 161.546 118.529 161.901 118.529 162.309C118.529 162.717 118.669 163.066 118.954 163.356C119.233 163.646 119.571 163.792 119.958 163.792C120.2 163.792 120.431 163.732 120.651 163.614C120.871 163.496 121.032 163.378 121.134 163.26L121.279 163.077L122.16 164.012C122.139 164.044 122.106 164.082 122.069 164.135C122.031 164.189 121.945 164.275 121.811 164.398C121.671 164.522 121.526 164.629 121.371 164.726C121.209 164.823 121.005 164.909 120.753 164.989C120.5 165.07 120.237 165.107 119.958 165.107C119.163 165.107 118.481 164.828 117.906 164.27C117.326 163.711 117.042 163.056 117.042 162.304C117.042 161.557 117.326 160.902 117.906 160.343C118.481 159.785 119.163 159.5 119.958 159.5H120.125V159.333C120.125 158.689 120.345 158.163 120.785 157.754C121.226 157.346 121.811 157.137 122.542 157.137C123.288 157.137 123.89 157.373 124.341 157.835C124.792 158.302 125.018 158.931 125.018 159.72H126.119V161.042H125.018V163.185C125.018 163.356 125.077 163.496 125.206 163.614C125.329 163.732 125.485 163.792 125.678 163.792C125.775 163.792 125.866 163.786 125.958 163.765C126.049 163.743 126.119 163.722 126.162 163.7L126.231 163.679V164.946C125.936 165.059 125.603 165.113 125.238 165.107C124.099 165.107 123.535 164.484 123.535 163.238V161.042H122.601V159.72H123.535C123.535 159.317 123.438 159.006 123.245 158.786C123.052 158.565 122.799 158.453 122.488 158.453C122.187 158.453 121.945 158.544 121.768 158.727C121.585 158.909 121.5 159.146 121.5 159.446C121.5 159.624 121.553 159.806 121.661 160C121.768 160.193 121.881 160.343 121.994 160.445L122.16 160.601ZM129.035 159.607V165H127.547V159.607H129.035ZM129.143 158.071C129.143 158.318 129.062 158.517 128.906 158.667C128.745 158.818 128.53 158.893 128.262 158.893C128.009 158.893 127.811 158.818 127.66 158.667C127.51 158.517 127.44 158.318 127.44 158.071C127.44 157.824 127.515 157.62 127.666 157.47C127.816 157.319 128.015 157.244 128.262 157.244C128.53 157.244 128.745 157.319 128.906 157.47C129.062 157.62 129.143 157.824 129.143 158.071ZM131.731 162.309C131.731 162.712 131.86 163.05 132.124 163.324C132.381 163.598 132.693 163.732 133.053 163.732C133.407 163.732 133.719 163.598 133.982 163.324C134.24 163.05 134.374 162.712 134.374 162.309C134.374 161.906 134.24 161.568 133.982 161.289C133.719 161.015 133.407 160.875 133.053 160.875C132.693 160.875 132.381 161.015 132.124 161.289C131.86 161.568 131.731 161.906 131.731 162.309ZM135.91 162.304C135.91 163.056 135.625 163.711 135.056 164.27C134.487 164.828 133.821 165.107 133.053 165.107C132.279 165.107 131.613 164.828 131.044 164.27C130.475 163.711 130.19 163.056 130.19 162.304C130.19 161.557 130.475 160.902 131.044 160.343C131.613 159.785 132.279 159.505 133.053 159.505C133.821 159.505 134.487 159.785 135.056 160.343C135.625 160.902 135.91 161.557 135.91 162.304ZM138.494 159.607L138.488 160.273C138.531 160.214 138.596 160.145 138.671 160.059C138.751 159.973 138.923 159.86 139.192 159.715C139.46 159.575 139.74 159.5 140.03 159.5C140.647 159.5 141.152 159.715 141.539 160.139C141.926 160.569 142.119 161.144 142.119 161.863V165H140.637V162.03C140.637 161.702 140.54 161.439 140.347 161.235C140.153 161.031 139.901 160.929 139.595 160.929C139.256 160.929 138.988 161.042 138.789 161.262C138.59 161.482 138.494 161.793 138.494 162.196V165H137.011V159.607H138.494Z" fill="black"/>
<path d="M49.4004 177H45.0498V169.998H45.8018V176.302H49.4004V177ZM51.3975 174.251L53.248 173.948C53.248 173.597 53.1357 173.309 52.9111 173.084C52.6865 172.864 52.3984 172.752 52.0469 172.752C51.793 172.752 51.5537 172.811 51.3291 172.928C51.1045 173.045 50.9434 173.162 50.8457 173.279L50.6943 173.45L50.2451 173.001C50.2646 172.977 50.2891 172.942 50.3232 172.903C50.3574 172.864 50.4307 172.791 50.5479 172.688C50.665 172.586 50.7871 172.493 50.9141 172.41C51.041 172.332 51.207 172.259 51.4121 172.195C51.6172 172.132 51.832 172.098 52.0469 172.098C52.5938 172.098 53.043 172.278 53.4043 172.63C53.7656 172.986 53.9463 173.426 53.9463 173.948V177H53.248V176.351C53.2334 176.37 53.2139 176.399 53.1846 176.434C53.1553 176.468 53.0967 176.526 52.999 176.614C52.9014 176.702 52.7988 176.775 52.6914 176.844C52.5791 176.912 52.4326 176.971 52.252 177.02C52.0713 177.073 51.8857 177.098 51.6953 177.098C51.2168 177.098 50.8115 176.956 50.4844 176.673C50.1572 176.39 49.9961 176.067 49.9961 175.701C49.9961 175.301 50.1133 174.979 50.3574 174.734C50.5967 174.49 50.9434 174.329 51.3975 174.251ZM51.6953 176.448C52.1445 176.448 52.5156 176.302 52.8086 176.004C53.1016 175.711 53.248 175.325 53.248 174.852V174.549L51.5977 174.852C50.9971 174.969 50.6943 175.252 50.6943 175.701C50.6943 175.916 50.7822 176.097 50.958 176.238C51.1338 176.38 51.3828 176.448 51.6953 176.448ZM58.4434 172.752L57.9355 173.25C57.9111 173.211 57.8721 173.167 57.8232 173.113C57.7744 173.06 57.6572 172.986 57.4766 172.894C57.291 172.801 57.0957 172.752 56.8906 172.752C56.6221 172.752 56.4072 172.825 56.2412 172.962C56.0752 173.104 55.9922 173.265 55.9922 173.45C55.9922 173.646 56.0801 173.797 56.2607 173.914C56.4365 174.031 56.6562 174.129 56.9102 174.197C57.1641 174.266 57.418 174.349 57.6719 174.437C57.9258 174.524 58.1406 174.671 58.3213 174.876C58.4971 175.081 58.5898 175.34 58.5898 175.652C58.5898 176.067 58.4287 176.414 58.1162 176.688C57.7988 176.961 57.374 177.098 56.8418 177.098C56.6123 177.098 56.3975 177.068 56.1973 177.01C55.9971 176.951 55.8311 176.883 55.7041 176.8C55.5723 176.722 55.46 176.639 55.3623 176.556C55.2646 176.473 55.1963 176.399 55.1523 176.341L55.0889 176.248L55.5918 175.75C55.6016 175.77 55.6211 175.799 55.6455 175.828C55.665 175.857 55.7188 175.916 55.7969 175.994C55.875 176.072 55.9629 176.146 56.0557 176.209C56.1436 176.272 56.2607 176.326 56.4072 176.375C56.5488 176.424 56.6953 176.448 56.8418 176.448C57.1787 176.448 57.4375 176.375 57.6182 176.224C57.7988 176.077 57.8916 175.887 57.8916 175.652C57.8916 175.457 57.7988 175.296 57.6182 175.169C57.4375 175.042 57.2227 174.944 56.9688 174.871C56.7148 174.798 56.4658 174.715 56.2119 174.627C55.958 174.539 55.7383 174.397 55.5576 174.202C55.377 174.007 55.2891 173.758 55.2891 173.45C55.2891 173.089 55.4404 172.776 55.7432 172.503C56.0459 172.234 56.4316 172.098 56.8906 172.098C56.998 172.098 57.0908 172.103 57.1738 172.112C57.2568 172.122 57.3154 172.132 57.3496 172.142L57.3887 172.151C57.2861 171.985 57.2373 171.785 57.2422 171.551C57.2422 171.106 57.4229 170.721 57.7891 170.394C58.1553 170.066 58.5898 169.9 59.0928 169.9C59.6104 169.9 60.04 170.066 60.3818 170.394C60.7188 170.721 60.8896 171.121 60.8896 171.6V172.2H61.9395V172.85H60.8896V175.701C60.8896 176.204 61.1045 176.453 61.5391 176.448C61.6465 176.448 61.7539 176.438 61.8613 176.409C61.9688 176.385 62.0518 176.36 62.1104 176.341L62.1934 176.302V176.951C61.9932 177.054 61.7637 177.103 61.5098 177.098C61.0947 177.098 60.7725 176.98 60.5381 176.736C60.3037 176.492 60.1865 176.15 60.1865 175.701V172.85H59.2881V172.2H60.1865V171.6C60.1865 171.302 60.084 171.053 59.8789 170.853C59.6738 170.652 59.4102 170.55 59.0928 170.55C58.7461 170.55 58.4678 170.652 58.2578 170.857C58.043 171.062 57.9404 171.326 57.9404 171.648C57.9404 171.854 57.9795 172.049 58.0625 172.234C58.1455 172.42 58.2285 172.552 58.3115 172.63L58.4434 172.752ZM68.7949 177V176.351C68.7803 176.37 68.7607 176.399 68.7363 176.434C68.707 176.468 68.6484 176.526 68.5508 176.614C68.4531 176.702 68.3506 176.775 68.2432 176.844C68.1309 176.912 67.9844 176.971 67.8037 177.02C67.623 177.073 67.4375 177.098 67.2471 177.098C66.6855 177.098 66.2217 176.907 65.8506 176.517C65.4795 176.126 65.2988 175.623 65.2988 174.998V172.2H65.9971V174.998C65.9971 175.418 66.124 175.765 66.3877 176.038C66.6465 176.312 66.9639 176.448 67.3447 176.448C67.75 176.448 68.0918 176.302 68.375 175.999C68.6533 175.701 68.7949 175.32 68.7949 174.852V172.2H69.498V177H68.7949ZM71.8467 174.603C71.8467 175.096 72.0176 175.525 72.3691 175.896C72.7207 176.268 73.1113 176.448 73.5459 176.448C73.9561 176.448 74.3271 176.272 74.6543 175.911C74.9814 175.55 75.1475 175.115 75.1475 174.603C75.1475 174.09 74.9814 173.655 74.6543 173.294C74.3271 172.933 73.9561 172.752 73.5459 172.752C73.1113 172.752 72.7207 172.938 72.3691 173.309C72.0176 173.68 71.8467 174.109 71.8467 174.603ZM71.8467 176.248V179.104H71.1484V172.205H71.8467V172.957C71.8564 172.938 71.8809 172.903 71.915 172.864C71.9492 172.825 72.0176 172.757 72.125 172.659C72.2324 172.562 72.3447 172.474 72.4717 172.396C72.5938 172.317 72.75 172.249 72.9453 172.19C73.1406 172.132 73.3408 172.103 73.5459 172.103C74.1562 172.103 74.6934 172.347 75.1523 172.84C75.6113 173.328 75.8457 173.919 75.8457 174.603C75.8457 175.286 75.6162 175.877 75.1572 176.365C74.6982 176.854 74.1611 177.098 73.5459 177.098C73.3408 177.098 73.1406 177.068 72.9502 177.01C72.7598 176.951 72.5986 176.883 72.4717 176.8C72.3398 176.722 72.2275 176.639 72.1299 176.556C72.0322 176.473 71.9639 176.399 71.915 176.341L71.8467 176.248ZM80.7432 174.603C80.7432 174.109 80.5674 173.68 80.2158 173.309C79.8643 172.938 79.4736 172.752 79.0391 172.752C78.6289 172.752 78.2578 172.933 77.9307 173.294C77.6035 173.655 77.4375 174.09 77.4375 174.603C77.4375 175.115 77.6035 175.55 77.9307 175.911C78.2578 176.272 78.6289 176.448 79.0391 176.448C79.4736 176.448 79.8643 176.268 80.2158 175.896C80.5674 175.525 80.7432 175.096 80.7432 174.603ZM80.7432 172.952V170.003H81.4414V177.005H80.7432V176.253C80.7285 176.272 80.7041 176.302 80.6699 176.341C80.6406 176.38 80.5674 176.453 80.46 176.551C80.3525 176.648 80.2402 176.731 80.1133 176.81C79.9912 176.888 79.835 176.956 79.6396 177.015C79.4443 177.073 79.2441 177.103 79.0391 177.103C78.4287 177.103 77.8916 176.854 77.4326 176.365C76.9736 175.877 76.7441 175.286 76.7441 174.603C76.7441 173.919 76.9736 173.328 77.4326 172.84C77.8916 172.347 78.4287 172.103 79.0391 172.103C79.2441 172.103 79.4443 172.132 79.6348 172.19C79.8252 172.249 79.9863 172.322 80.1133 172.4C80.2451 172.479 80.3574 172.562 80.4551 172.645C80.5527 172.732 80.626 172.801 80.6748 172.859L80.7432 172.952ZM84.1416 174.251L85.9922 173.948C85.9922 173.597 85.8799 173.309 85.6553 173.084C85.4307 172.864 85.1426 172.752 84.791 172.752C84.5371 172.752 84.2979 172.811 84.0732 172.928C83.8486 173.045 83.6875 173.162 83.5898 173.279L83.4385 173.45L82.9893 173.001C83.0088 172.977 83.0332 172.942 83.0674 172.903C83.1016 172.864 83.1748 172.791 83.292 172.688C83.4092 172.586 83.5312 172.493 83.6582 172.41C83.7852 172.332 83.9512 172.259 84.1562 172.195C84.3613 172.132 84.5762 172.098 84.791 172.098C85.3379 172.098 85.7871 172.278 86.1484 172.63C86.5098 172.986 86.6904 173.426 86.6904 173.948V177H85.9922V176.351C85.9775 176.37 85.958 176.399 85.9287 176.434C85.8994 176.468 85.8408 176.526 85.7432 176.614C85.6455 176.702 85.543 176.775 85.4355 176.844C85.3232 176.912 85.1768 176.971 84.9961 177.02C84.8154 177.073 84.6299 177.098 84.4395 177.098C83.9609 177.098 83.5557 176.956 83.2285 176.673C82.9014 176.39 82.7402 176.067 82.7402 175.701C82.7402 175.301 82.8574 174.979 83.1016 174.734C83.3408 174.49 83.6875 174.329 84.1416 174.251ZM84.4395 176.448C84.8887 176.448 85.2598 176.302 85.5527 176.004C85.8457 175.711 85.9922 175.325 85.9922 174.852V174.549L84.3418 174.852C83.7412 174.969 83.4385 175.252 83.4385 175.701C83.4385 175.916 83.5264 176.097 83.7021 176.238C83.8779 176.38 84.127 176.448 84.4395 176.448ZM88.7363 171.702V170.599H89.3857V172.2H90.4355V172.85H89.3857V175.701C89.3857 176.204 89.6006 176.453 90.0352 176.448C90.1426 176.448 90.2451 176.438 90.3525 176.409C90.46 176.385 90.5381 176.36 90.5967 176.341L90.6846 176.302V176.951C90.4844 177.054 90.2598 177.103 90.0059 177.098C89.5908 177.098 89.2686 176.98 89.0342 176.736C88.7998 176.492 88.6875 176.15 88.6875 175.701V172.85H87.7842V172.2H88.3359C88.5996 172.2 88.7363 172.034 88.7363 171.702ZM95.7285 174.861L91.8271 174.852C91.8516 175.286 92.0273 175.662 92.3594 175.975C92.6914 176.292 93.0771 176.448 93.5264 176.448C93.8242 176.448 94.1025 176.385 94.3613 176.248C94.6152 176.116 94.8008 175.984 94.9082 175.848L95.0791 175.652L95.5283 176.102C95.5088 176.131 95.4795 176.165 95.4404 176.214C95.4014 176.263 95.3232 176.341 95.1963 176.453C95.0693 176.565 94.9375 176.663 94.791 176.751C94.6445 176.839 94.459 176.917 94.2295 176.99C94 177.063 93.7656 177.098 93.5264 177.098C92.8721 177.098 92.3057 176.858 91.8369 176.37C91.3633 175.882 91.1289 175.291 91.1289 174.598C91.1289 173.904 91.3584 173.318 91.8271 172.83C92.2959 172.342 92.8428 172.098 93.4775 172.098C94.1318 172.098 94.6787 172.327 95.1182 172.781C95.5576 173.235 95.7773 173.807 95.7773 174.5L95.7285 174.861ZM93.4775 172.752C93.0576 172.752 92.6914 172.903 92.3789 173.196C92.0664 173.494 91.8809 173.846 91.8271 174.251H95.0791C95.0254 173.821 94.8496 173.46 94.5518 173.177C94.2539 172.894 93.8975 172.752 93.4775 172.752ZM100.675 174.603C100.675 174.109 100.499 173.68 100.147 173.309C99.7959 172.938 99.4053 172.752 98.9707 172.752C98.5605 172.752 98.1895 172.933 97.8623 173.294C97.5352 173.655 97.3691 174.09 97.3691 174.603C97.3691 175.115 97.5352 175.55 97.8623 175.911C98.1895 176.272 98.5605 176.448 98.9707 176.448C99.4053 176.448 99.7959 176.268 100.147 175.896C100.499 175.525 100.675 175.096 100.675 174.603ZM100.675 172.952V170.003H101.373V177.005H100.675V176.253C100.66 176.272 100.636 176.302 100.602 176.341C100.572 176.38 100.499 176.453 100.392 176.551C100.284 176.648 100.172 176.731 100.045 176.81C99.9229 176.888 99.7666 176.956 99.5713 177.015C99.376 177.073 99.1758 177.103 98.9707 177.103C98.3604 177.103 97.8232 176.854 97.3643 176.365C96.9053 175.877 96.6758 175.286 96.6758 174.603C96.6758 173.919 96.9053 173.328 97.3643 172.84C97.8232 172.347 98.3604 172.103 98.9707 172.103C99.1758 172.103 99.376 172.132 99.5664 172.19C99.7568 172.249 99.918 172.322 100.045 172.4C100.177 172.479 100.289 172.562 100.387 172.645C100.484 172.732 100.558 172.801 100.606 172.859L100.675 172.952ZM102.823 176.6C102.823 176.453 102.867 176.336 102.955 176.243C103.043 176.15 103.165 176.102 103.316 176.102C103.473 176.102 103.595 176.15 103.683 176.243C103.771 176.336 103.814 176.453 103.814 176.6C103.814 176.746 103.771 176.868 103.683 176.961C103.595 177.054 103.473 177.098 103.316 177.098C103.165 177.098 103.043 177.054 102.955 176.961C102.867 176.868 102.823 176.746 102.823 176.6ZM102.823 172.601C102.823 172.454 102.867 172.337 102.955 172.239C103.043 172.146 103.165 172.098 103.316 172.098C103.473 172.098 103.595 172.146 103.683 172.239C103.771 172.337 103.814 172.454 103.814 172.601C103.814 172.747 103.771 172.869 103.683 172.962C103.595 173.055 103.473 173.099 103.316 173.099C103.165 173.099 103.043 173.055 102.955 172.962C102.867 172.869 102.823 172.747 102.823 172.601ZM107.726 172.2V172.898C107.735 172.879 107.755 172.854 107.784 172.815C107.809 172.781 107.872 172.718 107.97 172.62C108.067 172.527 108.17 172.444 108.277 172.376C108.385 172.308 108.531 172.244 108.712 172.186C108.893 172.127 109.078 172.098 109.273 172.098C109.85 172.098 110.323 172.288 110.685 172.659C111.046 173.035 111.227 173.533 111.227 174.153V177.005H110.523V174.153C110.523 173.733 110.401 173.392 110.157 173.138C109.913 172.884 109.605 172.757 109.225 172.757C108.795 172.757 108.438 172.903 108.155 173.206C107.867 173.504 107.726 173.885 107.726 174.349V177H107.027V172.2H107.726ZM116.676 174.603C116.676 174.085 116.5 173.646 116.158 173.289C115.816 172.933 115.401 172.752 114.923 172.752C114.444 172.752 114.029 172.933 113.688 173.289C113.346 173.646 113.175 174.08 113.175 174.598C113.175 175.115 113.346 175.55 113.688 175.911C114.029 176.272 114.444 176.448 114.923 176.448C115.401 176.448 115.816 176.272 116.158 175.916C116.5 175.56 116.676 175.12 116.676 174.603ZM112.477 174.603C112.477 173.899 112.711 173.309 113.189 172.825C113.668 172.342 114.244 172.098 114.928 172.098C115.606 172.098 116.183 172.342 116.656 172.825C117.135 173.309 117.369 173.899 117.369 174.603C117.369 175.306 117.135 175.896 116.656 176.38C116.183 176.858 115.606 177.103 114.928 177.103C114.244 177.103 113.668 176.858 113.189 176.38C112.711 175.896 112.477 175.306 112.477 174.603ZM121.178 172.2H121.778L122.975 175.901L124.225 172.2H124.977L123.326 177H122.677L121.476 173.348L120.279 177H119.625L117.975 172.2H118.727L119.977 175.901L121.178 172.2Z" fill="#808080"/>
<path d="M230.866 161.075L231.927 160.015L237.706 165.792C237.799 165.885 237.873 165.995 237.924 166.116C237.974 166.237 238 166.367 238 166.498C238 166.63 237.974 166.76 237.924 166.881C237.873 167.002 237.799 167.112 237.706 167.205L231.927 172.985L230.867 171.925L236.291 166.5L230.866 161.075Z" fill="#727272"/>
</g>
<defs>
<filter id="filter0_d_4159_7339" x="0" y="0" width="254" height="69" filterUnits="userSpaceOnUse" color-interpolation-filters="sRGB">
<feFlood flood-opacity="0" result="BackgroundImageFix"/>
<feColorMatrix in="SourceAlpha" type="matrix" values="0 0 0 0 0 0 0 0 0 0 0 0 0 0 0 0 0 0 127 0" result="hardAlpha"/>
<feOffset dy="4"/>
<feGaussianBlur stdDeviation="2"/>
<feComposite in2="hardAlpha" operator="out"/>
<feColorMatrix type="matrix" values="0 0 0 0 0 0 0 0 0 0 0 0 0 0 0 0 0 0 0.25 0"/>
<feBlend mode="normal" in2="BackgroundImageFix" result="effect1_dropShadow_4159_7339"/>
<feBlend mode="normal" in="SourceGraphic" in2="effect1_dropShadow_4159_7339" result="shape"/>
</filter>
<filter id="filter1_d_4159_7339" x="0" y="68" width="254" height="69" filterUnits="userSpaceOnUse" color-interpolation-filters="sRGB">
<feFlood flood-opacity="0" result="BackgroundImageFix"/>
<feColorMatrix in="SourceAlpha" type="matrix" values="0 0 0 0 0 0 0 0 0 0 0 0 0 0 0 0 0 0 127 0" result="hardAlpha"/>
<feOffset dy="4"/>
<feGaussianBlur stdDeviation="2"/>
<feComposite in2="hardAlpha" operator="out"/>
<feColorMatrix type="matrix" values="0 0 0 0 0 0 0 0 0 0 0 0 0 0 0 0 0 0 0.25 0"/>
<feBlend mode="normal" in2="BackgroundImageFix" result="effect1_dropShadow_4159_7339"/>
<feBlend mode="normal" in="SourceGraphic" in2="effect1_dropShadow_4159_7339" result="shape"/>
</filter>
<filter id="filter2_d_4159_7339" x="0" y="136" width="254" height="69" filterUnits="userSpaceOnUse" color-interpolation-filters="sRGB">
<feFlood flood-opacity="0" result="BackgroundImageFix"/>
<feColorMatrix in="SourceAlpha" type="matrix" values="0 0 0 0 0 0 0 0 0 0 0 0 0 0 0 0 0 0 127 0" result="hardAlpha"/>
<feOffset dy="4"/>
<feGaussianBlur stdDeviation="2"/>
<feComposite in2="hardAlpha" operator="out"/>
<feColorMatrix type="matrix" values="0 0 0 0 0 0 0 0 0 0 0 0 0 0 0 0 0 0 0.25 0"/>
<feBlend mode="normal" in2="BackgroundImageFix" result="effect1_dropShadow_4159_7339"/>
<feBlend mode="normal" in="SourceGraphic" in2="effect1_dropShadow_4159_7339" result="shape"/>
</filter>
</defs>
</svg>
